<svg width="64" height="149" viewBox="0 0 64 149" fill="none" xmlns="http://www.w3.org/2000/svg">
<path d="M46.7737 0C50.5613 1.79587 52.906 2.15509 53.6275 3.4122C56.3329 8.08147 59.3991 12.7507 60.842 17.9587C65.1707 31.7869 64.6296 45.7947 61.7438 59.8025C56.874 83.6876 46.0523 104.879 32.5251 124.993C31.0822 127.148 29.8196 129.303 28.3767 131.637C28.3767 131.817 28.5571 132.176 28.9178 132.715C32.8858 131.637 37.0341 130.56 41.0021 129.662C43.1664 129.303 45.6915 129.303 47.8559 130.021C49.1184 130.38 50.922 132.356 50.922 133.613C50.922 135.229 49.6595 137.205 48.5773 138.641C47.6755 139.539 46.0522 139.719 44.6093 140.078C33.7876 142.772 22.9658 145.825 11.9637 148.339C2.58481 150.494 -0.4813 147.441 0.0597839 138.282C0.600872 128.764 0.781189 119.246 1.14191 109.907C1.32228 107.034 1.86338 103.981 2.2241 100.748C9.79933 104.161 9.79935 104.161 12.5048 133.254C23.8676 120.683 31.4429 107.034 38.477 93.0261C45.5111 79.0183 50.2006 64.2922 52.7256 48.6681C55.2507 32.5053 52.1846 17.2404 46.7737 0Z" fill="white"/>
</svg>
