<svg width="64" height="149" viewBox="0 0 64 149" fill="none" xmlns="http://www.w3.org/2000/svg">
<path d="M17.2263 0C13.4387 1.79587 11.094 2.15509 10.3725 3.4122C7.66711 8.08147 4.60094 12.7507 3.15804 17.9587C-1.17066 31.7869 -0.629573 45.7947 2.25623 59.8025C7.12602 83.6876 17.9477 104.879 31.4749 124.993C32.9178 127.148 34.1804 129.303 35.6233 131.637C35.6233 131.817 35.4429 132.176 35.0822 132.715C31.1142 131.637 26.9659 130.56 22.9979 129.662C20.8336 129.303 18.3085 129.303 16.1441 130.021C14.8816 130.38 13.078 132.356 13.078 133.613C13.078 135.229 14.3405 137.205 15.4227 138.641C16.3245 139.539 17.9478 139.719 19.3907 140.078C30.2124 142.772 41.0342 145.825 52.0363 148.339C61.4152 150.494 64.4813 147.441 63.9402 138.282C63.3991 128.764 63.2188 119.246 62.8581 109.907C62.6777 107.034 62.1366 103.981 61.7759 100.748C54.2007 104.161 54.2006 104.161 51.4952 133.254C40.1324 120.683 32.5571 107.034 25.523 93.0261C18.4889 79.0183 13.7994 64.2922 11.2744 48.6681C8.74928 32.5053 11.8154 17.2404 17.2263 0Z" fill="white"/>
</svg>
