<svg width="40" height="40" viewBox="0 0 40 40" fill="none" xmlns="http://www.w3.org/2000/svg">
<circle cx="20" cy="20" r="19.5" stroke="#111010"/>
<path d="M26 20.75H14C13.59 20.75 13.25 20.41 13.25 20C13.25 19.59 13.59 19.25 14 19.25H26C26.41 19.25 26.75 19.59 26.75 20C26.75 20.41 26.41 20.75 26 20.75Z" fill="#111010"/>
<path d="M20 26.75C19.59 26.75 19.25 26.41 19.25 26V14C19.25 13.59 19.59 13.25 20 13.25C20.41 13.25 20.75 13.59 20.75 14V26C20.75 26.41 20.41 26.75 20 26.75Z" fill="#111010"/>
</svg>
