<svg width="96" height="96" viewBox="0 0 96 96" fill="none" xmlns="http://www.w3.org/2000/svg">
<circle cx="48" cy="48" r="48" fill="#0C8BFD"/>
<path d="M61 49C54.375 49 49 54.375 49 61C49 63.25 49.625 65.375 50.75 67.175C52.825 70.65 56.625 73 61 73C65.375 73 69.2 70.65 71.25 67.175C72.35 65.375 73 63.25 73 61C73 54.375 67.625 49 61 49ZM66.95 59.425L60.55 65.325C60.2 65.65 59.725 65.825 59.275 65.825C58.8 65.825 58.325 65.65 57.95 65.275L55 62.325C54.275 61.6 54.275 60.4 55 59.675C55.725 58.95 56.925 58.95 57.65 59.675L59.325 61.35L64.4 56.65C65.15 55.95 66.35 56 67.05 56.75C67.75 57.525 67.7 58.725 66.95 59.425Z" fill="white"/>
<path opacity="0.4" d="M73 39.725C73 42.7 72.525 45.45 71.7 48C71.175 49.675 70.5 51.275 69.7 52.75C67.5 50.425 64.425 49 61 49C54.375 49 49 54.375 49 61C49 64.075 50.175 66.875 52.075 69C51.15 69.425 50.3 69.775 49.55 70.025C48.7 70.325 47.3 70.325 46.45 70.025C40.425 67.975 28.25 60.5 24.3 48C23.475 45.45 23 42.7 23 39.725C23 32 29.225 25.75 36.9 25.75C41.425 25.75 45.475 27.95 48 31.325C50.525 27.95 54.575 25.75 59.1 25.75C66.775 25.75 73 32 73 39.725Z" fill="white"/>
</svg>
