<svg width="96" height="96" viewBox="0 0 96 96" fill="none" xmlns="http://www.w3.org/2000/svg">
<circle cx="48" cy="48" r="48" fill="#0C8BFD"/>
<path opacity="0.4" d="M59.475 23H38.55C29.425 23 24 28.425 24 37.525V58.45C24 67.55 29.425 72.975 38.525 72.975H59.45C68.55 72.975 73.975 67.55 73.975 58.45V37.525C74 28.425 68.575 23 59.475 23Z" fill="white"/>
<path d="M64.0003 44.775C63.6003 44.775 63.2003 44.65 62.8503 44.375C54.4253 37.875 43.5503 37.875 35.1503 44.375C34.3253 45 33.1503 44.85 32.5253 44.05C31.9003 43.225 32.0503 42.05 32.8503 41.425C42.6503 33.85 55.3253 33.85 65.1503 41.425C65.9753 42.05 66.1253 43.225 65.4753 44.05C65.1253 44.525 64.5503 44.775 64.0003 44.775Z" fill="white"/>
<path d="M59.9999 52.5C59.5999 52.5 59.1999 52.375 58.8499 52.1C52.8499 47.475 45.1249 47.475 39.1249 52.1C38.2999 52.725 37.1249 52.575 36.4999 51.775C35.8749 50.975 36.0249 49.775 36.8249 49.15C44.1999 43.45 53.7499 43.45 61.1249 49.15C61.9499 49.775 62.0999 50.95 61.4499 51.775C61.1249 52.25 60.5749 52.5 59.9999 52.5Z" fill="white"/>
<path d="M54.4999 60.225C54.0999 60.225 53.6999 60.1 53.3499 59.825C50.6999 57.775 47.2749 57.775 44.6249 59.825C43.7999 60.45 42.6249 60.3 41.9999 59.5C41.3749 58.675 41.5249 57.5 42.3249 56.875C46.2999 53.8 51.6499 53.8 55.6249 56.875C56.4499 57.5 56.5999 58.675 55.9499 59.5C55.6249 59.975 55.0749 60.225 54.4999 60.225Z" fill="white"/>
</svg>
