<svg width="26" height="26" viewBox="0 0 26 26" fill="none" xmlns="http://www.w3.org/2000/svg">
<path d="M11.0979 1.8541C11.6966 0.0114832 14.3034 0.0114818 14.9021 1.8541L16.5922 7.05573C16.86 7.87977 17.6279 8.43769 18.4943 8.43769H23.9636C25.9011 8.43769 26.7066 10.9169 25.1392 12.0557L20.7145 15.2705C20.0135 15.7798 19.7202 16.6825 19.9879 17.5066L21.678 22.7082C22.2767 24.5508 20.1678 26.0831 18.6003 24.9443L14.1756 21.7295C13.4746 21.2202 12.5254 21.2202 11.8244 21.7295L7.39966 24.9443C5.83224 26.0831 3.72327 24.5508 4.32198 22.7082L6.01209 17.5066C6.27984 16.6825 5.98652 15.7798 5.28555 15.2705L0.860783 12.0557C-0.706645 10.9169 0.0989046 8.43769 2.03635 8.43769H7.50566C8.37212 8.43769 9.14003 7.87977 9.40778 7.05573L11.0979 1.8541Z" fill="#FAAE4B"/>
</svg>
