<svg width="140" height="48" viewBox="0 0 140 48" fill="none" xmlns="http://www.w3.org/2000/svg">
<path d="M0.318848 15.9976V24.8839C3.34263 24.8818 6.33715 25.4784 9.13106 26.6398C11.925 27.8011 14.4634 29.5043 16.6012 31.6519C18.7385 33.7987 20.4334 36.3475 21.5892 39.1526C22.7449 41.9576 23.3388 44.964 23.3368 47.9997H32.1792C32.1712 39.5157 28.8122 31.3815 22.8391 25.3819C16.866 19.3822 8.76687 16.0073 0.318848 15.9976H0.318848Z" fill="#0C8BFD" fill-opacity="0.5"/>
<path d="M44.5392 0H30.5259C37.6149 4.51154 43.6217 10.543 48.1151 17.6615V3.58863C48.1144 2.63664 47.7374 1.72386 47.0669 1.05093C46.3963 0.378005 45.4871 -2.35566e-07 44.5392 0V0Z" fill="#0C8BFD" fill-opacity="0.5"/>
<path d="M9.12353 0H0.318848V8.00084C10.8791 8.01188 21.0038 12.2296 28.4711 19.7284C35.9385 27.2273 40.1387 37.3948 40.15 48H48.1157V39.1579C46.3147 29.4398 41.6254 20.4973 34.6653 13.5076C27.7052 6.51787 18.8005 1.80868 9.12353 0V0Z" fill="#0C8BFD" fill-opacity="0.5"/>
<path d="M69.7894 5.28369H64.1771V33.6921H69.7894V5.28369Z" fill="#0C8BFD" fill-opacity="0.5"/>
<path d="M90.4251 17.5917C89.4907 16.7388 88.3971 16.0806 87.2076 15.6553C84.6523 14.7542 81.8676 14.7542 79.3123 15.6553C78.1222 16.0803 77.0282 16.7385 76.0936 17.5917C75.177 18.4403 74.4448 19.4698 73.9427 20.6157C73.4238 21.8658 73.1566 23.2068 73.1566 24.5612C73.1566 25.9156 73.4238 27.2566 73.9427 28.5067C74.4429 29.6559 75.1753 30.6882 76.0936 31.5383C77.0265 32.3921 78.12 33.05 79.3098 33.4734C81.8648 34.3761 84.6501 34.3761 87.2051 33.4734C88.3952 33.05 89.4891 32.3921 90.4225 31.5383C91.3404 30.6879 92.0728 29.6556 92.5734 28.5067C93.0923 27.2566 93.3595 25.9156 93.3595 24.5612C93.3595 23.2068 93.0923 21.8658 92.5734 20.6157C92.0718 19.4702 91.3405 18.4408 90.4251 17.5917ZM86.5711 27.9067C85.6623 28.7288 84.4825 29.1838 83.2593 29.1838C82.0361 29.1838 80.8563 28.7288 79.9475 27.9067C79.1836 26.9597 78.7668 25.778 78.7668 24.5593C78.7668 23.3406 79.1836 22.1589 79.9475 21.2119C80.8563 20.3898 82.0361 19.9348 83.2593 19.9348C84.4825 19.9348 85.6623 20.3898 86.5711 21.2119C87.335 22.1589 87.7518 23.3406 87.7518 24.5593C87.7518 25.778 87.335 26.9597 86.5711 27.9067V27.9067Z" fill="#0C8BFD" fill-opacity="0.5"/>
<path d="M110.574 17.8352H110.503C110.244 17.4692 109.943 17.1352 109.605 16.8398C109.197 16.477 108.745 16.1672 108.26 15.9177C107.033 15.2856 105.671 14.9634 104.292 14.9792C103.084 14.9579 101.889 15.2355 100.813 15.7876C99.8106 16.309 98.9253 17.0317 98.2122 17.9109C97.485 18.8172 96.9271 19.8481 96.5657 20.9539C96.1813 22.0931 95.9854 23.2879 95.9858 24.4907C95.9716 25.7819 96.1872 27.0652 96.6223 28.2802C97.0165 29.389 97.631 30.4058 98.4285 31.2688C99.223 32.1134 100.187 32.7786 101.257 33.2204C102.421 33.6966 103.668 33.9329 104.924 33.9152C105.853 33.899 106.772 33.7146 107.636 33.3707C108.605 33.0017 109.444 32.3546 110.049 31.5101H110.125V33.2785C110.146 33.8684 110.049 34.4565 109.84 35.0082C109.631 35.5599 109.315 36.064 108.909 36.4907C108.393 36.9484 107.791 37.2964 107.138 37.5135C106.485 37.7306 105.795 37.8124 105.11 37.7539C104.023 37.7661 102.946 37.5483 101.949 37.1147C100.957 36.6695 100.031 36.0879 99.1983 35.3867L96.0927 40.0415C97.3621 41.0682 98.8459 41.7941 100.433 42.1648C102.004 42.5276 103.611 42.7102 105.223 42.7093C108.765 42.7093 111.403 41.8137 113.136 40.0225C114.869 38.2314 115.736 35.6074 115.737 32.1505V15.4301H110.58L110.574 17.8352ZM110.237 26.1581C110.015 26.6928 109.691 27.1783 109.282 27.5867C108.866 28.0032 108.378 28.3405 107.842 28.5821C107.285 28.8303 106.683 28.9586 106.074 28.9586C105.465 28.9586 104.863 28.8303 104.306 28.5821C103.777 28.3371 103.296 28.0001 102.884 27.5867C102.473 27.1749 102.147 26.6857 101.925 26.1473C101.703 25.609 101.589 25.0319 101.589 24.4491C101.589 23.8662 101.703 23.2891 101.925 22.7508C102.147 22.2124 102.473 21.7233 102.884 21.3114C103.296 20.898 103.778 20.5607 104.306 20.3147C104.863 20.0674 105.465 19.9396 106.074 19.9396C106.683 19.9396 107.285 20.0674 107.842 20.3147C108.378 20.5573 108.866 20.8949 109.282 21.3114C109.9 21.9346 110.32 22.7273 110.49 23.5897C110.659 24.4521 110.571 25.3457 110.237 26.1581V26.1581Z" fill="#0C8BFD" fill-opacity="0.5"/>
<path d="M136.822 17.5917C135.887 16.7388 134.794 16.0806 133.604 15.6553C131.049 14.7542 128.264 14.7542 125.709 15.6553C124.519 16.0803 123.425 16.7385 122.49 17.5917C121.573 18.4403 120.841 19.4698 120.339 20.6157C119.82 21.8658 119.553 23.2068 119.553 24.5612C119.553 25.9156 119.82 27.2566 120.339 28.5067C120.839 29.6559 121.572 30.6882 122.49 31.5383C123.424 32.3924 124.518 33.0503 125.709 33.4734C128.264 34.3761 131.049 34.3761 133.604 33.4734C134.794 33.05 135.888 32.3921 136.822 31.5383C137.74 30.6882 138.472 29.6559 138.972 28.5067C139.491 27.2566 139.758 25.9156 139.758 24.5612C139.758 23.2068 139.491 21.8658 138.972 20.6157C138.47 19.4698 137.738 18.4403 136.822 17.5917V17.5917ZM132.968 27.9067C132.059 28.7288 130.879 29.1838 129.656 29.1838C128.433 29.1838 127.253 28.7288 126.344 27.9067C125.58 26.9597 125.163 25.778 125.163 24.5593C125.163 23.3406 125.58 22.1589 126.344 21.2119C127.253 20.3898 128.433 19.9348 129.656 19.9348C130.879 19.9348 132.059 20.3898 132.968 21.2119C133.731 22.1589 134.148 23.3406 134.148 24.5593C134.148 25.778 133.731 26.9597 132.968 27.9067Z" fill="#0C8BFD" fill-opacity="0.5"/>
</svg>
