<svg width="41" height="40" viewBox="0 0 41 40" fill="none" xmlns="http://www.w3.org/2000/svg">
<path d="M20.5 40C31.5457 40 40.5 31.0457 40.5 20C40.5 8.9543 31.5457 0 20.5 0C9.4543 0 0.5 8.9543 0.5 20C0.5 31.0457 9.4543 40 20.5 40Z" fill="#E6F7FF"/>
<path d="M22.124 20.541H18.876C18.8049 20.541 18.7346 20.555 18.6689 20.5822C18.6033 20.6094 18.5437 20.6492 18.4934 20.6995C18.4432 20.7497 18.4033 20.8093 18.3761 20.875C18.349 20.9406 18.335 21.011 18.335 21.082V28.118C18.335 28.1891 18.349 28.2594 18.3761 28.325C18.4033 28.3907 18.4432 28.4503 18.4934 28.5006C18.5437 28.5508 18.6033 28.5906 18.6689 28.6178C18.7346 28.645 18.8049 28.659 18.876 28.659H22.124C22.2674 28.659 22.405 28.602 22.5065 28.5006C22.608 28.3991 22.665 28.2615 22.665 28.118V21.082C22.665 20.9385 22.608 20.8009 22.5065 20.6995C22.405 20.598 22.2674 20.541 22.124 20.541Z" fill="#1890FF"/>
<path d="M15.6288 23.7891H12.3808C12.2374 23.7891 12.0998 23.8461 11.9983 23.9475C11.8968 24.049 11.8398 24.1866 11.8398 24.3301V28.1191C11.8398 28.2625 11.8968 28.4002 11.9983 28.5016C12.0998 28.6031 12.2374 28.6601 12.3808 28.6601H15.6288C15.7723 28.6601 15.9099 28.6031 16.0114 28.5016C16.1128 28.4002 16.1698 28.2625 16.1698 28.1191V24.3301C16.1698 24.1866 16.1128 24.049 16.0114 23.9475C15.9099 23.8461 15.7723 23.7891 15.6288 23.7891Z" fill="#1890FF"/>
<path d="M28.6191 17.2942H25.3711C25.3 17.2942 25.2297 17.3082 25.164 17.3354C25.0984 17.3626 25.0388 17.4024 24.9885 17.4526C24.9383 17.5029 24.8984 17.5625 24.8713 17.6282C24.8441 17.6938 24.8301 17.7641 24.8301 17.8352V28.1192C24.8301 28.1902 24.8441 28.2606 24.8713 28.3262C24.8984 28.3919 24.9383 28.4515 24.9885 28.5017C25.0388 28.552 25.0984 28.5918 25.164 28.619C25.2297 28.6462 25.3 28.6602 25.3711 28.6602H28.6191C28.7626 28.6602 28.9002 28.6032 29.0016 28.5017C29.1031 28.4003 29.1601 28.2627 29.1601 28.1192V17.8352C29.1601 17.6917 29.1031 17.5541 29.0016 17.4526C28.9002 17.3512 28.7626 17.2942 28.6191 17.2942Z" fill="#1890FF"/>
<path d="M20.5001 17.8401C20.5712 17.8401 20.6417 17.8261 20.7074 17.7988C20.7732 17.7715 20.8329 17.7315 20.8831 17.6811L25.3721 13.1881V15.6701H26.4551V11.8811C26.4551 11.8099 26.441 11.7394 26.4137 11.6736C26.3864 11.6078 26.3464 11.5481 26.2959 11.4978C26.2455 11.4476 26.1856 11.4078 26.1197 11.3807C26.0539 11.3536 25.9833 11.3398 25.9121 11.3401H22.1241V12.4231H24.6061L20.5001 16.5291L18.1771 14.2051C18.0756 14.1037 17.938 14.0467 17.7946 14.0467C17.6511 14.0467 17.5135 14.1037 17.4121 14.2051L14.7051 16.9111L15.4701 17.6761L17.7941 15.3531L20.1181 17.6771C20.1678 17.7281 20.2272 17.7688 20.2928 17.7968C20.3583 17.8248 20.4288 17.8395 20.5001 17.8401Z" fill="#1890FF"/>
</svg>
