<svg width="17" height="17" viewBox="0 0 17 17" fill="none" xmlns="http://www.w3.org/2000/svg">
<path d="M15.119 16C15.3531 16 15.5777 15.907 15.7433 15.7414C15.9089 15.5758 16.002 15.3512 16.002 15.117V0.883C16.002 0.648814 15.9089 0.424219 15.7433 0.258625C15.5777 0.0930301 15.3531 0 15.119 0L0.884953 0C0.650767 0 0.426172 0.0930301 0.260578 0.258625C0.0949832 0.424219 0.00195313 0.648814 0.00195312 0.883L0.00195313 15.117C0.00195313 15.3512 0.0949832 15.5758 0.260578 15.7414C0.426172 15.907 0.650767 16 0.884953 16H15.119Z" fill="#485A96"/>
<path d="M11.0418 16V9.80698H13.1218L13.4328 7.39198H11.0418V5.84798C11.0418 5.14798 11.2358 4.67198 12.2418 4.67198H13.5208V2.51198C12.9021 2.44479 12.2802 2.41141 11.6578 2.41198C11.2346 2.38129 10.8098 2.44353 10.4132 2.59433C10.0165 2.74513 9.65768 2.98085 9.36176 3.28496C9.06584 3.58908 8.84001 3.95422 8.7001 4.35482C8.56018 4.75541 8.50956 5.18176 8.5518 5.60398V7.38498H6.4668V9.80698H8.5518V16.007H11.0458L11.0418 16Z" fill="white"/>
</svg>
