<svg width="25" height="25" viewBox="0 0 25 25" fill="none" xmlns="http://www.w3.org/2000/svg">
<path d="M8.50001 7.59794V5.82794C9.16722 5.59204 9.72956 5.12787 10.0876 4.51746C10.4457 3.90705 10.5765 3.1897 10.4568 2.49221C10.3371 1.79471 9.97473 1.16198 9.43367 0.705834C8.8926 0.249692 8.20769 -0.000488281 7.50001 -0.000488281C6.79232 -0.000488281 6.10741 0.249692 5.56635 0.705834C5.02528 1.16198 4.66288 1.79471 4.54321 2.49221C4.42354 3.1897 4.5543 3.90705 4.91237 4.51746C5.27045 5.12787 5.83279 5.59204 6.50001 5.82794V8.01194C6.50006 8.27713 6.60546 8.53145 6.79301 8.71894L9.50001 11.4259V23.0119C9.50001 23.2772 9.60536 23.5315 9.7929 23.719C9.98044 23.9066 10.2348 24.0119 10.5 24.0119C10.7652 24.0119 11.0196 23.9066 11.2071 23.719C11.3946 23.5315 11.5 23.2772 11.5 23.0119V11.0119C11.4999 10.7467 11.3946 10.4924 11.207 10.3049L8.50001 7.59794Z" fill="#722ED1"/>
<path d="M4.50001 16.5979V14.8279C5.16722 14.592 5.72956 14.1279 6.08764 13.5175C6.44571 12.907 6.57647 12.1897 6.4568 11.4922C6.33713 10.7947 5.97474 10.162 5.43367 9.70583C4.8926 9.24969 4.20769 8.99951 3.50001 8.99951C2.79232 8.99951 2.10741 9.24969 1.56635 9.70583C1.02528 10.162 0.662882 10.7947 0.543211 11.4922C0.423539 12.1897 0.554298 12.907 0.912375 13.5175C1.27045 14.1279 1.83279 14.592 2.50001 14.8279V17.0119C2.50006 17.2771 2.60546 17.5314 2.79301 17.7189L5.50001 20.4259V23.0119C5.50001 23.2772 5.60536 23.5315 5.7929 23.719C5.98044 23.9066 6.23479 24.0119 6.50001 24.0119C6.76522 24.0119 7.01958 23.9066 7.20711 23.719C7.39465 23.5315 7.50001 23.2772 7.50001 23.0119V20.0119C7.49995 19.7467 7.39456 19.4924 7.20701 19.3049L4.50001 16.5979Z" fill="#722ED1"/>
<path d="M18.5 8.01194V5.82794C19.1672 5.59204 19.7296 5.12787 20.0876 4.51746C20.4457 3.90705 20.5765 3.1897 20.4568 2.49221C20.3371 1.79471 19.9747 1.16198 19.4337 0.705834C18.8926 0.249692 18.2077 -0.000488281 17.5 -0.000488281C16.7923 -0.000488281 16.1074 0.249692 15.5663 0.705834C15.0253 1.16198 14.6629 1.79471 14.5432 2.49221C14.4235 3.1897 14.5543 3.90705 14.9124 4.51746C15.2704 5.12787 15.8328 5.59204 16.5 5.82794V7.59794L13.793 10.3049C13.6055 10.4924 13.5001 10.7467 13.5 11.0119V23.0119C13.5 23.2772 13.6054 23.5315 13.7929 23.719C13.9804 23.9066 14.2348 24.0119 14.5 24.0119C14.7652 24.0119 15.0196 23.9066 15.2071 23.719C15.3946 23.5315 15.5 23.2772 15.5 23.0119V11.4259L18.207 8.71894C18.3946 8.53145 18.4999 8.27713 18.5 8.01194Z" fill="#722ED1"/>
<path d="M24.5 12.0119C24.5023 11.4614 24.353 10.9209 24.0686 10.4495C23.7842 9.97818 23.3755 9.59418 22.8874 9.33959C22.3993 9.085 21.8505 8.96962 21.3012 9.00611C20.7519 9.04259 20.2232 9.22952 19.7731 9.54644C19.3229 9.86335 18.9686 10.298 18.749 10.8028C18.5294 11.3077 18.453 11.8632 18.528 12.4086C18.6031 12.954 18.8268 13.4682 19.1746 13.8949C19.5224 14.3216 19.981 14.6444 20.5 14.8279V16.5979L17.793 19.3049C17.6054 19.4924 17.5001 19.7467 17.5 20.0119V23.0119C17.5 23.2771 17.6054 23.5315 17.7929 23.719C17.9804 23.9066 18.2348 24.0119 18.5 24.0119C18.7652 24.0119 19.0196 23.9066 19.2071 23.719C19.3946 23.5315 19.5 23.2771 19.5 23.0119V20.4259L22.207 17.7189C22.3946 17.5314 22.4999 17.2771 22.5 17.0119V14.8279C23.0829 14.6218 23.5879 14.2407 23.9459 13.7366C24.3039 13.2326 24.4974 12.6302 24.5 12.0119Z" fill="#722ED1"/>
</svg>
