<svg width="24" height="24" viewBox="0 0 24 24" fill="none" xmlns="http://www.w3.org/2000/svg">
<path d="M12.3871 2.4V0H10.8421V2.4C9.90219 2.59181 9.06695 3.12581 8.49836 3.89845C7.92977 4.6711 7.66832 5.62734 7.76472 6.5818C7.86111 7.53626 8.30848 8.42092 9.02008 9.06427C9.73168 9.70762 10.6568 10.0638 11.6161 10.0638C12.5754 10.0638 13.5006 9.70762 14.2122 9.06427C14.9238 8.42092 15.3711 7.53626 15.4675 6.5818C15.5639 5.62734 15.3025 4.6711 14.7339 3.89845C14.1653 3.12581 13.3301 2.59181 12.3901 2.4H12.3871Z" fill="#722ED1"/>
<path d="M19.8 17.0319H21.681V15.4839H19.021L15.974 9.39694C15.3365 10.2632 14.4564 10.9209 13.445 11.2869L15.545 15.4869H12.387V13.9349H10.839V15.4829H7.682L9.782 11.2829C8.77053 10.9171 7.89037 10.2594 7.253 9.39294L4.2 15.4839H1.548V17.0319H3.429L0 23.8809C0.878326 24.1005 1.80527 24.014 2.62777 23.6356C3.45028 23.2573 4.11917 22.6097 4.524 21.7999L6.908 17.0329H10.839V18.5809H12.387V17.0319H16.318L18.7 21.7999C19.1048 22.6097 19.7737 23.2573 20.5962 23.6356C21.4187 24.014 22.3457 24.1005 23.224 23.8809L19.8 17.0319Z" fill="#722ED1"/>
</svg>
