<svg width="16" height="16" viewBox="0 0 16 16" fill="none" xmlns="http://www.w3.org/2000/svg">
<path d="M5.334 8C5.334 7.47247 5.49044 6.9568 5.78354 6.51819C6.07664 6.07958 6.49323 5.73775 6.98061 5.53592C7.468 5.33409 8.0043 5.28133 8.52167 5.38432C9.03905 5.48731 9.51426 5.74141 9.88721 6.1145C10.2602 6.48759 10.5141 6.96289 10.6169 7.48031C10.7197 7.99772 10.6667 8.534 10.4647 9.02131C10.2627 9.50862 9.9207 9.92508 9.48198 10.218C9.04326 10.5109 8.52752 10.6672 8 10.667C7.29284 10.6667 6.61474 10.3856 6.11479 9.8855C5.61485 9.38537 5.334 8.70716 5.334 8ZM3.892 8C3.892 8.81249 4.13293 9.60673 4.58432 10.2823C5.03572 10.9578 5.6773 11.4844 6.42794 11.7953C7.17858 12.1062 8.00456 12.1876 8.80143 12.0291C9.5983 11.8706 10.3303 11.4793 10.9048 10.9048C11.4793 10.3303 11.8706 9.5983 12.0291 8.80143C12.1876 8.00456 12.1062 7.17858 11.7953 6.42794C11.4844 5.6773 10.9578 5.03572 10.2823 4.58432C9.60673 4.13293 8.81249 3.892 8 3.892C6.91049 3.892 5.8656 4.32481 5.09521 5.09521C4.32481 5.8656 3.892 6.91049 3.892 8ZM11.31 3.729C11.31 3.91887 11.3663 4.10448 11.4718 4.26235C11.5773 4.42022 11.7272 4.54326 11.9026 4.61592C12.078 4.68858 12.2711 4.7076 12.4573 4.67055C12.6435 4.63351 12.8146 4.54208 12.9488 4.40782C13.0831 4.27356 13.1745 4.10251 13.2116 3.91629C13.2486 3.73006 13.2296 3.53704 13.1569 3.36162C13.0843 3.18621 12.9612 3.03628 12.8033 2.93079C12.6455 2.8253 12.4599 2.769 12.27 2.769C12.0154 2.769 11.7712 2.87014 11.5912 3.05018C11.4111 3.23021 11.31 3.47439 11.31 3.729ZM4.768 14.512C4.26056 14.5063 3.75788 14.4133 3.282 14.237C2.93443 14.1081 2.6201 13.9031 2.362 13.637C2.09543 13.3793 1.89035 13.0648 1.762 12.717C1.58565 12.2411 1.49262 11.7385 1.487 11.231C1.448 10.388 1.44 10.131 1.44 7.998C1.44 5.865 1.448 5.609 1.487 4.765C1.49329 4.25761 1.5863 3.75504 1.762 3.279C1.89091 2.93143 2.09591 2.6171 2.362 2.359C2.61966 2.09238 2.93413 1.88729 3.282 1.759C3.75786 1.58265 4.26055 1.48962 4.768 1.484C5.611 1.445 5.868 1.437 8 1.437C10.132 1.437 10.389 1.445 11.233 1.484C11.7404 1.49029 12.243 1.5833 12.719 1.759C13.0667 1.88766 13.3811 2.0927 13.639 2.359C13.9053 2.61692 14.1103 2.93131 14.239 3.279C14.4154 3.75486 14.5084 4.25755 14.514 4.765C14.553 5.609 14.561 5.865 14.561 7.998C14.561 10.131 14.553 10.387 14.514 11.231C14.508 11.7384 14.4149 12.241 14.239 12.717C14.1058 13.062 13.9018 13.3754 13.6402 13.6368C13.3786 13.8983 13.0651 14.102 12.72 14.235C12.2441 14.4114 11.7415 14.5044 11.234 14.51C10.391 14.549 10.134 14.557 8.001 14.557C5.868 14.557 5.612 14.549 4.769 14.51L4.768 14.512ZM4.7 0.048C4.03695 0.0614449 3.38099 0.187228 2.76 0.42C2.2262 0.621021 1.74263 0.936001 1.343 1.343C0.935625 1.74233 0.620587 2.22598 0.42 2.76C0.187265 3.381 0.0614835 4.03696 0.048 4.7C0.009 5.555 0 5.827 0 8C0 10.173 0.009 10.445 0.048 11.3C0.0614642 11.963 0.187247 12.619 0.42 13.24C0.620645 13.774 0.935676 14.2576 1.343 14.657C1.74282 15.0638 2.22633 15.3787 2.76 15.58C3.38165 15.8129 4.03829 15.9387 4.702 15.952C5.555 15.99 5.827 16 8 16C10.173 16 10.445 15.991 11.3 15.952C11.9637 15.9388 12.6204 15.813 13.242 15.58C13.7735 15.3745 14.2563 15.0602 14.6592 14.6572C15.0622 14.2543 15.3765 13.7715 15.582 13.24C15.8153 12.6185 15.9411 11.9618 15.954 11.298C15.99 10.445 16 10.173 16 8C16 5.827 15.991 5.555 15.952 4.7C15.9386 4.03695 15.8128 3.38099 15.58 2.76C15.3787 2.22634 15.0637 1.74284 14.657 1.343C14.2578 0.935898 13.7746 0.62089 13.241 0.42C12.6197 0.186967 11.9634 0.0611776 11.3 0.048C10.446 0.01 10.173 0 8 0C5.827 0 5.555 0.009 4.7 0.048Z" fill="url(#paint0_radial_11_664)"/>
<path d="M5.334 8C5.334 7.47247 5.49044 6.9568 5.78354 6.51819C6.07664 6.07958 6.49323 5.73775 6.98061 5.53592C7.468 5.33409 8.0043 5.28133 8.52167 5.38432C9.03905 5.48731 9.51426 5.74141 9.88721 6.1145C10.2602 6.48759 10.5141 6.96289 10.6169 7.48031C10.7197 7.99772 10.6667 8.534 10.4647 9.02131C10.2627 9.50862 9.9207 9.92508 9.48198 10.218C9.04326 10.5109 8.52752 10.6672 8 10.667C7.29284 10.6667 6.61474 10.3856 6.11479 9.8855C5.61485 9.38537 5.334 8.70716 5.334 8ZM3.892 8C3.892 8.81249 4.13293 9.60673 4.58432 10.2823C5.03572 10.9578 5.6773 11.4844 6.42794 11.7953C7.17858 12.1062 8.00456 12.1876 8.80143 12.0291C9.5983 11.8706 10.3303 11.4793 10.9048 10.9048C11.4793 10.3303 11.8706 9.5983 12.0291 8.80143C12.1876 8.00456 12.1062 7.17858 11.7953 6.42794C11.4844 5.6773 10.9578 5.03572 10.2823 4.58432C9.60673 4.13293 8.81249 3.892 8 3.892C6.91049 3.892 5.8656 4.32481 5.09521 5.09521C4.32481 5.8656 3.892 6.91049 3.892 8ZM11.31 3.729C11.31 3.91887 11.3663 4.10448 11.4718 4.26235C11.5773 4.42022 11.7272 4.54326 11.9026 4.61592C12.078 4.68858 12.2711 4.7076 12.4573 4.67055C12.6435 4.63351 12.8146 4.54208 12.9488 4.40782C13.0831 4.27356 13.1745 4.10251 13.2116 3.91629C13.2486 3.73006 13.2296 3.53704 13.1569 3.36162C13.0843 3.18621 12.9612 3.03628 12.8033 2.93079C12.6455 2.8253 12.4599 2.769 12.27 2.769C12.0154 2.769 11.7712 2.87014 11.5912 3.05018C11.4111 3.23021 11.31 3.47439 11.31 3.729ZM4.768 14.512C4.26056 14.5063 3.75788 14.4133 3.282 14.237C2.93443 14.1081 2.6201 13.9031 2.362 13.637C2.09543 13.3793 1.89035 13.0648 1.762 12.717C1.58565 12.2411 1.49262 11.7385 1.487 11.231C1.448 10.388 1.44 10.131 1.44 7.998C1.44 5.865 1.448 5.609 1.487 4.765C1.49329 4.25761 1.5863 3.75504 1.762 3.279C1.89091 2.93143 2.09591 2.6171 2.362 2.359C2.61966 2.09238 2.93413 1.88729 3.282 1.759C3.75786 1.58265 4.26055 1.48962 4.768 1.484C5.611 1.445 5.868 1.437 8 1.437C10.132 1.437 10.389 1.445 11.233 1.484C11.7404 1.49029 12.243 1.5833 12.719 1.759C13.0667 1.88766 13.3811 2.0927 13.639 2.359C13.9053 2.61692 14.1103 2.93131 14.239 3.279C14.4154 3.75486 14.5084 4.25755 14.514 4.765C14.553 5.609 14.561 5.865 14.561 7.998C14.561 10.131 14.553 10.387 14.514 11.231C14.508 11.7384 14.4149 12.241 14.239 12.717C14.1058 13.062 13.9018 13.3754 13.6402 13.6368C13.3786 13.8983 13.0651 14.102 12.72 14.235C12.2441 14.4114 11.7415 14.5044 11.234 14.51C10.391 14.549 10.134 14.557 8.001 14.557C5.868 14.557 5.612 14.549 4.769 14.51L4.768 14.512ZM4.7 0.048C4.03695 0.0614449 3.38099 0.187228 2.76 0.42C2.2262 0.621021 1.74263 0.936001 1.343 1.343C0.935625 1.74233 0.620587 2.22598 0.42 2.76C0.187265 3.381 0.0614835 4.03696 0.048 4.7C0.009 5.555 0 5.827 0 8C0 10.173 0.009 10.445 0.048 11.3C0.0614642 11.963 0.187247 12.619 0.42 13.24C0.620645 13.774 0.935676 14.2576 1.343 14.657C1.74282 15.0638 2.22633 15.3787 2.76 15.58C3.38165 15.8129 4.03829 15.9387 4.702 15.952C5.555 15.99 5.827 16 8 16C10.173 16 10.445 15.991 11.3 15.952C11.9637 15.9388 12.6204 15.813 13.242 15.58C13.7735 15.3745 14.2563 15.0602 14.6592 14.6572C15.0622 14.2543 15.3765 13.7715 15.582 13.24C15.8153 12.6185 15.9411 11.9618 15.954 11.298C15.99 10.445 16 10.173 16 8C16 5.827 15.991 5.555 15.952 4.7C15.9386 4.03695 15.8128 3.38099 15.58 2.76C15.3787 2.22634 15.0637 1.74284 14.657 1.343C14.2578 0.935898 13.7746 0.62089 13.241 0.42C12.6197 0.186967 11.9634 0.0611776 11.3 0.048C10.446 0.01 10.173 0 8 0C5.827 0 5.555 0.009 4.7 0.048Z" fill="url(#paint1_radial_11_664)"/>
<defs>
<radialGradient id="paint0_radial_11_664" cx="0" cy="0" r="1" gradientUnits="userSpaceOnUse" gradientTransform="translate(2.128 16.08) scale(20.88)">
<stop offset="0.09" stop-color="#FA8F21"/>
<stop offset="0.78" stop-color="#D82D7E"/>
</radialGradient>
<radialGradient id="paint1_radial_11_664" cx="0" cy="0" r="1" gradientUnits="userSpaceOnUse" gradientTransform="translate(9.696 16.8) scale(16.464)">
<stop offset="0.64" stop-color="#8C3AAA" stop-opacity="0"/>
<stop offset="1" stop-color="#8C3AAA"/>
</radialGradient>
</defs>
</svg>
