<svg width="41" height="40" viewBox="0 0 41 40" fill="none" xmlns="http://www.w3.org/2000/svg">
<path d="M20.5 40C31.5457 40 40.5 31.0457 40.5 20C40.5 8.9543 31.5457 0 20.5 0C9.4543 0 0.5 8.9543 0.5 20C0.5 31.0457 9.4543 40 20.5 40Z" fill="#F6FFED"/>
<path d="M21.0133 12H19.9863V19.7H18.4453V20.732H19.9863V28.432H21.0133V25.355H22.5543V24.328H21.0133V16.109H22.5543V15.082H21.0133V12Z" fill="#52C41A"/>
<path d="M27.5 13.219H24.5C23.9477 13.219 23.5 13.6667 23.5 14.219V17.219C23.5 17.7713 23.9477 18.219 24.5 18.219H27.5C28.0523 18.219 28.5 17.7713 28.5 17.219V14.219C28.5 13.6667 28.0523 13.219 27.5 13.219Z" fill="#52C41A"/>
<path d="M27.5 22.219H24.5C23.9477 22.219 23.5 22.6667 23.5 23.219V26.219C23.5 26.7713 23.9477 27.219 24.5 27.219H27.5C28.0523 27.219 28.5 26.7713 28.5 26.219V23.219C28.5 22.6667 28.0523 22.219 27.5 22.219Z" fill="#52C41A"/>
<path d="M16.5 17.219H13.5C12.9477 17.219 12.5 17.6667 12.5 18.219V22.219C12.5 22.7713 12.9477 23.219 13.5 23.219H16.5C17.0523 23.219 17.5 22.7713 17.5 22.219V18.219C17.5 17.6667 17.0523 17.219 16.5 17.219Z" fill="#52C41A"/>
</svg>
