<svg width="16" height="16" viewBox="0 0 16 16" fill="none" xmlns="http://www.w3.org/2000/svg">
<path d="M7.99902 16C12.4173 16 15.999 12.4183 15.999 8C15.999 3.58172 12.4173 0 7.99902 0C3.58075 0 -0.000976562 3.58172 -0.000976562 8C-0.000976562 12.4183 3.58075 16 7.99902 16Z" fill="#2DAAE1"/>
<path d="M13.0969 4.83402C12.7156 5.00301 12.3111 5.11391 11.8969 5.16302C12.3336 4.90159 12.6606 4.49044 12.8169 4.00602C12.4065 4.24997 11.9573 4.42178 11.4889 4.51401C11.2019 4.20803 10.8296 3.99537 10.4203 3.90365C10.011 3.81193 9.58353 3.84539 9.19345 3.99967C8.80337 4.15396 8.46868 4.42193 8.23283 4.76884C7.99699 5.11574 7.87088 5.52553 7.87088 5.94501C7.87073 6.10555 7.88884 6.26558 7.92488 6.42202C7.09329 6.38036 6.27975 6.1643 5.53706 5.78788C4.79438 5.41145 4.13914 4.88307 3.61388 4.23702C3.34659 4.69745 3.26472 5.24239 3.3849 5.76104C3.50509 6.27968 3.81832 6.73308 4.26088 7.02901C3.92891 7.01879 3.6042 6.9293 3.31387 6.76801V6.79401C3.31379 7.27704 3.48086 7.74523 3.78673 8.11909C4.09259 8.49294 4.5184 8.74943 4.99188 8.84502C4.81231 8.89389 4.62699 8.91844 4.44089 8.91802C4.30869 8.91798 4.17677 8.90559 4.04688 8.88102C4.18062 9.2965 4.44086 9.65981 4.7912 9.92014C5.14154 10.1805 5.56448 10.3248 6.00089 10.333C5.12299 11.0208 4.00812 11.3322 2.90088 11.199C3.79984 11.775 4.83726 12.0985 5.9043 12.1354C6.97133 12.1723 8.02864 11.9213 8.96524 11.4087C9.90184 10.8962 10.6832 10.141 11.2274 9.22242C11.7715 8.30382 12.0584 7.2557 12.0579 6.18803C12.0579 6.09736 12.0559 6.00701 12.0519 5.91701C12.4617 5.62086 12.8155 5.25415 13.0969 4.83402Z" fill="white"/>
</svg>
