<svg width="938" height="67" viewBox="0 0 938 67" fill="none" xmlns="http://www.w3.org/2000/svg">
<path d="M46.0389 21.84L44.2812 22.7942L44.8489 23.84H46.0389V21.84ZM40.9789 16.964L40.0247 18.7217L40.0543 18.7378L40.0845 18.7528L40.9789 16.964ZM21.1069 20.276L22.5744 21.6348L22.5806 21.6281L22.5868 21.6213L21.1069 20.276ZM21.2909 47.6L19.8376 48.974L19.8504 48.9876L19.8635 49.0009L21.2909 47.6ZM44.3829 49.624L43.2066 48.0065L43.1977 48.013L43.1889 48.0195L44.3829 49.624ZM50.2709 41.16L52.1683 41.7925L53.0457 39.16H50.2709V41.16ZM30.3069 41.16H28.3069V43.16H30.3069V41.16ZM30.3069 29.568V27.568H28.3069V29.568H30.3069ZM64.5309 29.568H66.5309V27.568H64.5309V29.568ZM64.5309 44.196L66.4482 44.7652L66.5309 44.4866V44.196H64.5309ZM58.5509 55.144L57.0167 53.8609L57.0098 53.8692L57.003 53.8775L58.5509 55.144ZM47.9709 63.332L47.0971 61.533L47.9709 63.332ZM16.3229 62.32L15.3352 64.0591L15.3479 64.0663L15.3607 64.0733L16.3229 62.32ZM4.63889 50.636L2.89058 51.6073L2.89513 51.6155L2.89977 51.6236L4.63889 50.636ZM4.63889 16.596L2.89459 15.6175L2.89058 15.6247L4.63889 16.596ZM16.3229 4.91199L17.2942 6.66031L17.3024 6.65575L17.3105 6.65112L16.3229 4.91199ZM52.8469 6.292L51.6898 7.92332L51.6987 7.92957L52.8469 6.292ZM63.4269 21.84V23.84H66.0115L65.3629 21.3381L63.4269 21.84ZM47.7966 20.8858C46.4336 18.375 44.4436 16.4603 41.8733 15.1751L40.0845 18.7528C41.9302 19.6757 43.3135 21.0117 44.2812 22.7942L47.7966 20.8858ZM41.9331 15.2063C39.439 13.8524 36.5521 13.216 33.3429 13.216V17.216C36.0217 17.216 38.2254 17.7449 40.0247 18.7217L41.9331 15.2063ZM33.3429 13.216C27.7618 13.216 23.1192 15.0892 19.627 18.9307L22.5868 21.6213C25.2279 18.7161 28.7427 17.216 33.3429 17.216V13.216ZM19.6394 18.9172C16.1541 22.6813 14.5069 27.6557 14.5069 33.616H18.5069C18.5069 28.4136 19.9264 24.4947 22.5744 21.6348L19.6394 18.9172ZM14.5069 33.616C14.5069 39.9269 16.2064 45.1334 19.8376 48.974L22.7442 46.226C19.9967 43.3199 18.5069 39.2037 18.5069 33.616H14.5069ZM19.8635 49.0009C23.569 52.7763 28.5752 54.568 34.6309 54.568V50.568C29.4012 50.568 25.5141 49.0477 22.7183 46.1991L19.8635 49.0009ZM34.6309 54.568C38.8471 54.568 42.5367 53.4909 45.5769 51.2285L43.1889 48.0195C40.9544 49.6824 38.1427 50.568 34.6309 50.568V54.568ZM45.5592 51.2415C48.6475 48.9955 50.8319 45.8016 52.1683 41.7925L48.3735 40.5275C47.2566 43.8784 45.5156 46.3272 43.2066 48.0065L45.5592 51.2415ZM50.2709 39.16H30.3069V43.16H50.2709V39.16ZM32.3069 41.16V29.568H28.3069V41.16H32.3069ZM30.3069 31.568H64.5309V27.568H30.3069V31.568ZM62.5309 29.568V44.196H66.5309V29.568H62.5309ZM62.6136 43.6268C61.5316 47.2716 59.6761 50.6812 57.0167 53.8609L60.085 56.4271C63.0683 52.8601 65.1996 48.9711 66.4482 44.7652L62.6136 43.6268ZM57.003 53.8775C54.4433 57.006 51.1549 59.5621 47.0971 61.533L48.8447 65.131C53.3736 62.9313 57.1385 60.0287 60.0988 56.4105L57.003 53.8775ZM47.0971 61.533C43.1097 63.4697 38.5693 64.46 33.4349 64.46V68.46C39.0951 68.46 44.2454 67.365 48.8447 65.131L47.0971 61.533ZM33.4349 64.46C27.3542 64.46 21.9876 63.1473 17.2851 60.5667L15.3607 64.0733C20.7168 67.0127 26.7582 68.46 33.4349 68.46V64.46ZM17.3105 60.5809C12.6562 57.9377 9.02121 54.3027 6.37801 49.6483L2.89977 51.6236C5.89924 56.9053 10.0536 61.0597 15.3352 64.0591L17.3105 60.5809ZM6.38721 49.6647C3.81168 45.0288 2.49889 39.6971 2.49889 33.616H-1.50111C-1.50111 40.2922 -0.0538983 46.3072 2.89058 51.6073L6.38721 49.6647ZM2.49889 33.616C2.49889 27.5349 3.81168 22.2032 6.38721 17.5673L2.89058 15.6247C-0.0538983 20.9248 -1.50111 26.9398 -1.50111 33.616H2.49889ZM6.38318 17.5745C9.02597 12.8634 12.6552 9.23753 17.2942 6.66031L15.3516 3.16368C10.0546 6.10647 5.89448 10.2699 2.8946 15.6175L6.38318 17.5745ZM17.3105 6.65112C21.9436 4.02002 27.2693 2.68 33.3429 2.68V-1.32C26.6592 -1.32 20.6382 0.161304 15.3352 3.17287L17.3105 6.65112ZM33.3429 2.68C40.739 2.68 46.815 4.46561 51.6898 7.9233L54.004 4.66069C48.3294 0.635715 41.4028 -1.32 33.3429 -1.32V2.68ZM51.6987 7.92957C56.6248 11.3835 59.8864 16.153 61.4909 22.3419L65.3629 21.3381C63.5327 14.2789 59.741 8.68314 53.9951 4.65442L51.6987 7.92957ZM63.4269 19.84H46.0389V23.84H63.4269V19.84ZM113.449 54.592L115.343 53.9504L114.883 52.592H113.449V54.592ZM89.345 54.592V52.592H87.9108L87.4507 53.9504L89.345 54.592ZM85.481 66V68H86.9152L87.3753 66.6416L85.481 66ZM69.013 66L67.1323 65.3195L66.1625 68H69.013V66ZM92.381 1.416V-0.584003H90.9778L90.5003 0.735523L92.381 1.416ZM110.597 1.416L112.478 0.735523L112 -0.584003H110.597V1.416ZM133.965 66V68H136.816L135.846 65.3195L133.965 66ZM117.313 66L115.419 66.6416L115.879 68H117.313V66ZM109.401 42.448V44.448H112.19L111.295 41.8067L109.401 42.448ZM101.397 18.804L103.291 18.1627L101.386 12.5342L99.5004 18.1693L101.397 18.804ZM93.485 42.448L91.5884 41.8133L90.7067 44.448H93.485V42.448ZM113.449 52.592H89.345V56.592H113.449V52.592ZM87.4507 53.9504L83.5867 65.3584L87.3753 66.6416L91.2393 55.2336L87.4507 53.9504ZM85.481 64H69.013V68H85.481V64ZM70.8937 66.6805L94.2617 2.09647L90.5003 0.735523L67.1323 65.3195L70.8937 66.6805ZM92.381 3.416H110.597V-0.584003H92.381V3.416ZM108.716 2.09647L132.084 66.6805L135.846 65.3195L112.478 0.735523L108.716 2.09647ZM133.965 64H117.313V68H133.965V64ZM119.207 65.3584L115.343 53.9504L111.555 55.2336L115.419 66.6416L119.207 65.3584ZM111.295 41.8067L103.291 18.1627L99.5026 19.4453L107.507 43.0893L111.295 41.8067ZM99.5004 18.1693L91.5884 41.8133L95.3816 43.0827L103.294 19.4387L99.5004 18.1693ZM93.485 44.448H109.401V40.448H93.485V44.448ZM214.217 1.416H216.217V-0.584003H214.217V1.416ZM214.217 66V68H216.217V66H214.217ZM198.485 66H196.485V68H198.485V66ZM198.485 27.268H200.485L196.611 26.5692L198.485 27.268ZM184.041 66V68H185.43L185.915 66.6988L184.041 66ZM171.345 66L169.472 66.7013L169.958 68H171.345V66ZM156.809 27.176L158.682 26.4747L154.809 27.176H156.809ZM156.809 66V68H158.809V66H156.809ZM141.077 66H139.077V68H141.077V66ZM141.077 1.416V-0.584003H139.077V1.416H141.077ZM159.661 1.416L161.515 0.664677L161.008 -0.584003H159.661V1.416ZM177.785 46.128L175.932 46.8793L177.795 51.4753L179.641 46.8728L177.785 46.128ZM195.725 1.416V-0.584003H194.373L193.869 0.671242L195.725 1.416ZM212.217 1.416V66H216.217V1.416H212.217ZM214.217 64H198.485V68H214.217V64ZM200.485 66V27.268H196.485V66H200.485ZM196.611 26.5692L182.167 65.3012L185.915 66.6988L200.359 27.9668L196.611 26.5692ZM184.041 64H171.345V68H184.041V64ZM173.218 65.2987L158.682 26.4747L154.936 27.8773L169.472 66.7013L173.218 65.2987ZM154.809 27.176V66H158.809V27.176H154.809ZM156.809 64H141.077V68H156.809V64ZM143.077 66V1.416H139.077V66H143.077ZM141.077 3.416H159.661V-0.584003H141.077V3.416ZM157.808 2.16732L175.932 46.8793L179.639 45.3767L161.515 0.664677L157.808 2.16732ZM179.641 46.8728L197.581 2.16076L193.869 0.671242L175.929 45.3832L179.641 46.8728ZM195.725 3.416H214.217V-0.584003H195.725V3.416ZM241.262 14.02V12.02H239.262V14.02H241.262ZM241.262 27.084H239.262V29.084H241.262V27.084ZM262.33 27.084H264.33V25.084H262.33V27.084ZM262.33 39.228V41.228H264.33V39.228H262.33ZM241.262 39.228V37.228H239.262V39.228H241.262ZM241.262 53.396H239.262V55.396H241.262V53.396ZM265.09 53.396H267.09V51.396H265.09V53.396ZM265.09 66V68H267.09V66H265.09ZM225.53 66H223.53V68H225.53V66ZM225.53 1.416V-0.584003H223.53V1.416H225.53ZM265.09 1.416H267.09V-0.584003H265.09V1.416ZM265.09 14.02V16.02H267.09V14.02H265.09ZM239.262 14.02V27.084H243.262V14.02H239.262ZM241.262 29.084H262.33V25.084H241.262V29.084ZM260.33 27.084V39.228H264.33V27.084H260.33ZM262.33 37.228H241.262V41.228H262.33V37.228ZM239.262 39.228V53.396H243.262V39.228H239.262ZM241.262 55.396H265.09V51.396H241.262V55.396ZM263.09 53.396V66H267.09V53.396H263.09ZM265.09 64H225.53V68H265.09V64ZM227.53 66V1.416H223.53V66H227.53ZM225.53 3.416H265.09V-0.584003H225.53V3.416ZM263.09 1.416V14.02H267.09V1.416H263.09ZM265.09 12.02H241.262V16.02H265.09V12.02ZM285.976 64.344L285.217 66.1946L285.976 64.344ZM276.96 57.536L275.348 58.7202L275.356 58.7307L275.364 58.7412L276.96 57.536ZM273.464 46.68V44.68H271.405L271.464 46.7379L273.464 46.68ZM290.208 46.68L292.197 46.4759L292.013 44.68H290.208V46.68ZM292.692 52.2L291.343 53.677L291.361 53.6933L291.379 53.7092L292.692 52.2ZM303.732 52.476L304.954 54.0586L304.977 54.0415L304.998 54.0239L303.732 52.476ZM304.1 44.012L302.685 45.4262L302.706 45.4464L302.726 45.466L304.1 44.012ZM300.144 41.436L299.338 43.2666L299.351 43.2724L299.364 43.2779L300.144 41.436ZM293.52 39.136L292.929 41.0469L292.939 41.0499L292.949 41.0528L293.52 39.136ZM283.308 35.272L282.43 37.0691L283.308 35.272ZM276.5 29.568L278.095 28.3618L276.5 29.568ZM280.18 5.648L281.404 7.2291L281.411 7.22374L281.418 7.21833L280.18 5.648ZM314.404 5.648L313.165 7.21833L313.172 7.22374L313.179 7.2291L314.404 5.648ZM321.396 19.816V21.816H323.499L323.393 19.7151L321.396 19.816ZM304.376 19.816L302.379 19.9334L302.49 21.816H304.376V19.816ZM302.076 14.94L300.763 16.4492L300.782 16.4658L300.802 16.4819L302.076 14.94ZM292.048 14.664L293.336 16.1938L293.359 16.1745L293.381 16.1545L292.048 14.664ZM293.244 23.864L294.265 22.1443L293.244 23.864ZM302.444 27.636L303.084 25.7414L303.072 25.7372L303.059 25.7331L302.444 27.636ZM312.564 31.684L311.669 33.4729L311.678 33.477L311.686 33.4811L312.564 31.684ZM319.372 37.296L317.791 38.5211L319.372 37.296ZM319.372 56.8L317.681 55.7307L317.674 55.7431L317.666 55.7557L319.372 56.8ZM311.276 63.976L310.381 62.1871L311.276 63.976ZM298.672 64.644C294.166 64.644 290.198 63.913 286.734 62.4934L285.217 66.1946C289.236 67.8417 293.732 68.644 298.672 68.644V64.644ZM286.734 62.4934C283.299 61.0858 280.593 59.0286 278.556 56.3308L275.364 58.7412C277.865 62.054 281.169 64.5356 285.217 66.1946L286.734 62.4934ZM278.571 56.3518C276.636 53.7169 275.575 50.5049 275.463 46.6221L271.464 46.7379C271.597 51.3191 272.868 55.3444 275.348 58.7202L278.571 56.3518ZM273.464 48.68H290.208V44.68H273.464V48.68ZM288.218 46.8841C288.5 49.6337 289.483 51.9786 291.343 53.677L294.04 50.723C293.079 49.8454 292.406 48.5103 292.197 46.4759L288.218 46.8841ZM291.379 53.7092C293.228 55.3166 295.568 56.04 298.212 56.04V52.04C296.317 52.04 294.977 51.5368 294.004 50.6908L291.379 53.7092ZM298.212 56.04C300.824 56.04 303.146 55.4558 304.954 54.0586L302.509 50.8934C301.618 51.5815 300.26 52.04 298.212 52.04V56.04ZM304.998 54.0239C306.858 52.5025 307.756 50.4073 307.756 47.968H303.756C303.756 49.3314 303.304 50.2415 302.465 50.9281L304.998 54.0239ZM307.756 47.968C307.756 45.8541 306.999 43.9992 305.473 42.558L302.726 45.466C303.408 46.1101 303.756 46.8926 303.756 47.968H307.756ZM305.514 42.5978C304.26 41.3442 302.714 40.3519 300.923 39.5941L299.364 43.2779C300.762 43.8694 301.854 44.5945 302.685 45.4262L305.514 42.5978ZM300.949 39.6054C299.302 38.8807 297.001 38.0862 294.091 37.2192L292.949 41.0528C295.804 41.9032 297.918 42.642 299.338 43.2666L300.949 39.6054ZM294.11 37.2251C289.995 35.9543 286.697 34.7015 284.185 33.4749L282.43 37.0691C285.193 38.4185 288.703 39.7416 292.929 41.0469L294.11 37.2251ZM284.185 33.4749C281.851 32.3348 279.821 30.6448 278.095 28.3618L274.904 30.7742C276.981 33.5205 279.49 35.6332 282.43 37.0691L284.185 33.4749ZM278.095 28.3618C276.523 26.2821 275.648 23.4611 275.648 19.724H271.648C271.648 24.0829 272.674 27.8245 274.904 30.7742L278.095 28.3618ZM275.648 19.724C275.648 14.267 277.588 10.1856 281.404 7.2291L278.955 4.0669C274.062 7.85706 271.648 13.1596 271.648 19.724H275.648ZM281.418 7.21833C285.337 4.12782 290.538 2.496 297.2 2.496V-1.504C289.878 -1.504 283.732 0.298847 278.941 4.07767L281.418 7.21833ZM297.2 2.496C303.994 2.496 309.253 4.13238 313.165 7.21833L315.642 4.07767C310.845 0.294285 304.635 -1.504 297.2 -1.504V2.496ZM313.179 7.2291C317.021 10.2056 319.117 14.3593 319.398 19.9169L323.393 19.7151C323.06 13.1287 320.495 7.83707 315.628 4.0669L313.179 7.2291ZM321.396 17.816H304.376V21.816H321.396V17.816ZM306.372 19.6986C306.222 17.145 305.251 14.9688 303.349 13.3981L300.802 16.4819C301.722 17.2418 302.284 18.3163 302.379 19.9334L306.372 19.6986ZM303.388 13.4308C301.549 11.8321 299.246 11.1 296.648 11.1V15.1C298.465 15.1 299.78 15.5946 300.763 16.4492L303.388 13.4308ZM296.648 11.1C294.366 11.1 292.321 11.7354 290.714 13.1735L293.381 16.1545C294.105 15.5073 295.127 15.1 296.648 15.1V11.1ZM290.759 13.1342C289.034 14.5873 288.3 16.6558 288.3 18.988H292.3C292.3 17.5175 292.731 16.7034 293.336 16.1938L290.759 13.1342ZM288.3 18.988C288.3 21.8562 289.722 24.0992 292.223 25.5837L294.265 22.1443C292.84 21.2981 292.3 20.2905 292.3 18.988H288.3ZM292.223 25.5837C294.382 26.8657 297.62 28.1775 301.828 29.5389L303.059 25.7331C298.926 24.3959 296.031 23.193 294.265 22.1443L292.223 25.5837ZM301.803 29.5306C305.927 30.9255 309.206 32.2413 311.669 33.4729L313.458 29.8951C310.769 28.5507 307.302 27.1679 303.084 25.7414L301.803 29.5306ZM311.686 33.4811C314.032 34.6271 316.066 36.2955 317.791 38.5211L320.952 36.0709C318.875 33.3898 316.369 31.3169 313.441 29.8869L311.686 33.4811ZM317.791 38.5211C319.36 40.5453 320.224 43.2407 320.224 46.772H324.224C324.224 42.5753 323.186 38.9533 320.952 36.0709L317.791 38.5211ZM320.224 46.772C320.224 50.0873 319.373 53.0568 317.681 55.7307L321.062 57.8693C323.173 54.5325 324.224 50.8167 324.224 46.772H320.224ZM317.666 55.7557C316.046 58.4021 313.648 60.5537 310.381 62.1871L312.17 65.7649C316.018 63.8409 319.018 61.2085 321.077 57.8443L317.666 55.7557ZM310.381 62.1871C307.156 63.7999 303.273 64.644 298.672 64.644V68.644C303.761 68.644 308.281 67.7094 312.17 65.7649L310.381 62.1871ZM365.201 62.412L364.223 64.1563L364.232 64.1613L365.201 62.412ZM353.149 50.636L351.418 51.6373L351.425 51.6496L351.432 51.6619L353.149 50.636ZM353.149 16.504L351.432 15.4781L351.428 15.4858L351.423 15.4936L353.149 16.504ZM365.201 4.728L364.232 2.97867L364.223 2.98372L365.201 4.728ZM398.597 4.728L397.619 6.47231L397.628 6.47731L398.597 4.728ZM410.557 16.504L408.822 17.4986L408.827 17.5065L408.831 17.5144L410.557 16.504ZM410.557 50.636L412.283 51.6464L412.289 51.6372L410.557 50.636ZM398.597 62.412L399.576 64.1563L398.597 62.412ZM394.273 47.14L392.795 45.7933L392.788 45.8006L392.781 45.808L394.273 47.14ZM394.273 19.908L392.781 21.24L392.794 21.2541L392.807 21.2679L394.273 19.908ZM369.433 19.816L367.967 18.4561L367.96 18.4634L367.953 18.4706L369.433 19.816ZM369.433 47.232L367.941 48.564L367.954 48.5781L367.967 48.5919L369.433 47.232ZM381.945 64.644C376.197 64.644 370.952 63.3124 366.171 60.6627L364.232 64.1613C369.632 67.1543 375.549 68.644 381.945 68.644V64.644ZM366.18 60.6677C361.46 58.0201 357.695 54.3446 354.866 49.6101L351.432 51.6619C354.614 56.986 358.884 61.1612 364.223 64.1563L366.18 60.6677ZM354.881 49.6348C352.126 44.871 350.733 39.5168 350.733 33.524H346.733C346.733 40.1659 348.285 46.2197 351.418 51.6373L354.881 49.6348ZM350.733 33.524C350.733 27.531 352.126 22.2117 354.875 17.5144L351.423 15.4936C348.285 20.855 346.733 26.8823 346.733 33.524H350.733ZM354.866 17.5299C357.695 12.7954 361.46 9.1199 366.18 6.47229L364.223 2.98372C358.884 5.97877 354.614 10.154 351.432 15.4781L354.866 17.5299ZM366.171 6.47731C370.952 3.82763 376.197 2.496 381.945 2.496V-1.504C375.549 -1.504 369.632 -0.0142975 364.232 2.97869L366.171 6.47731ZM381.945 2.496C387.693 2.496 392.904 3.82758 397.619 6.47229L399.576 2.98371C394.232 -0.0142517 388.341 -1.504 381.945 -1.504V2.496ZM397.628 6.47731C402.4 9.12241 406.122 12.7873 408.822 17.4986L412.292 15.5094C409.227 10.162 404.975 5.97625 399.567 2.97869L397.628 6.47731ZM408.831 17.5144C411.581 22.2117 412.973 27.531 412.973 33.524H416.973C416.973 26.8823 415.422 20.855 412.283 15.4936L408.831 17.5144ZM412.973 33.524C412.973 39.5168 411.581 44.871 408.826 49.6348L412.289 51.6372C415.422 46.2197 416.973 40.1659 416.973 33.524H412.973ZM408.831 49.6256C406.065 54.3517 402.335 58.0222 397.619 60.6677L399.576 64.1563C404.918 61.1591 409.162 56.979 412.283 51.6464L408.831 49.6256ZM397.619 60.6677C392.904 63.3124 387.693 64.644 381.945 64.644V68.644C388.341 68.644 394.232 67.1543 399.576 64.1563L397.619 60.6677ZM381.945 54.292C387.592 54.292 392.272 52.3849 395.765 48.472L392.781 45.808C390.142 48.7644 386.603 50.292 381.945 50.292V54.292ZM395.752 48.4867C399.284 44.6083 400.965 39.5524 400.965 33.524H396.965C396.965 38.7809 395.518 42.8024 392.795 45.7933L395.752 48.4867ZM400.965 33.524C400.965 27.4423 399.288 22.3747 395.74 18.5481L392.807 21.2679C395.514 24.1879 396.965 28.1977 396.965 33.524H400.965ZM395.765 18.576C392.272 14.6631 387.592 12.756 381.945 12.756V16.756C386.603 16.756 390.142 18.2836 392.781 21.24L395.765 18.576ZM381.945 12.756C376.257 12.756 371.525 14.6183 367.967 18.4561L370.9 21.1759C373.597 18.267 377.207 16.756 381.945 16.756V12.756ZM367.953 18.4706C364.47 22.302 362.833 27.3977 362.833 33.524H366.833C366.833 28.1196 368.263 24.0766 370.913 21.1613L367.953 18.4706ZM362.833 33.524C362.833 39.5971 364.474 44.6809 367.941 48.564L370.925 45.9C368.259 42.9138 366.833 38.8589 366.833 33.524H362.833ZM367.967 48.5919C371.525 52.4297 376.257 54.292 381.945 54.292V50.292C377.207 50.292 373.597 48.781 370.9 45.8721L367.967 48.5919ZM465.77 1.416H467.77V-0.584003H465.77V1.416ZM465.77 14.02V16.02H467.77V14.02H465.77ZM439.457 14.02V12.02H437.457V14.02H439.457ZM439.457 27.636H437.457V29.636H439.457V27.636ZM459.145 27.636H461.145V25.636H459.145V27.636ZM459.145 39.872V41.872H461.145V39.872H459.145ZM439.457 39.872V37.872H437.457V39.872H439.457ZM439.457 66V68H441.457V66H439.457ZM423.725 66H421.725V68H423.725V66ZM423.725 1.416V-0.584003H421.725V1.416H423.725ZM463.77 1.416V14.02H467.77V1.416H463.77ZM465.77 12.02H439.457V16.02H465.77V12.02ZM437.457 14.02V27.636H441.457V14.02H437.457ZM439.457 29.636H459.145V25.636H439.457V29.636ZM457.145 27.636V39.872H461.145V27.636H457.145ZM459.145 37.872H439.457V41.872H459.145V37.872ZM437.457 39.872V66H441.457V39.872H437.457ZM439.457 64H423.725V68H439.457V64ZM425.725 66V1.416H421.725V66H425.725ZM423.725 3.416H465.77V-0.584003H423.725V3.416ZM539.994 1.416H541.994V-0.584003H539.994V1.416ZM539.994 14.02V16.02H541.994V14.02H539.994ZM522.882 14.02V12.02H520.882V14.02H522.882ZM522.882 66V68H524.882V66H522.882ZM507.15 66H505.15V68H507.15V66ZM507.15 14.02H509.15V12.02H507.15V14.02ZM490.038 14.02H488.038V16.02H490.038V14.02ZM490.038 1.416V-0.584003H488.038V1.416H490.038ZM537.994 1.416V14.02H541.994V1.416H537.994ZM539.994 12.02H522.882V16.02H539.994V12.02ZM520.882 14.02V66H524.882V14.02H520.882ZM522.882 64H507.15V68H522.882V64ZM509.15 66V14.02H505.15V66H509.15ZM507.15 12.02H490.038V16.02H507.15V12.02ZM492.038 14.02V1.416H488.038V14.02H492.038ZM490.038 3.416H539.994V-0.584003H490.038V3.416ZM603.826 1.416H605.826V-0.584003H603.826V1.416ZM603.826 66V68H605.826V66H603.826ZM588.094 66H586.094V68H588.094V66ZM588.094 39.412H590.094V37.412H588.094V39.412ZM563.622 39.412V37.412H561.622V39.412H563.622ZM563.622 66V68H565.622V66H563.622ZM547.89 66H545.89V68H547.89V66ZM547.89 1.416V-0.584003H545.89V1.416H547.89ZM563.622 1.416H565.622V-0.584003H563.622V1.416ZM563.622 26.716H561.622V28.716H563.622V26.716ZM588.094 26.716V28.716H590.094V26.716H588.094ZM588.094 1.416V-0.584003H586.094V1.416H588.094ZM601.826 1.416V66H605.826V1.416H601.826ZM603.826 64H588.094V68H603.826V64ZM590.094 66V39.412H586.094V66H590.094ZM588.094 37.412H563.622V41.412H588.094V37.412ZM561.622 39.412V66H565.622V39.412H561.622ZM563.622 64H547.89V68H563.622V64ZM549.89 66V1.416H545.89V66H549.89ZM547.89 3.416H563.622V-0.584003H547.89V3.416ZM561.622 1.416V26.716H565.622V1.416H561.622ZM563.622 28.716H588.094V24.716H563.622V28.716ZM590.094 26.716V1.416H586.094V26.716H590.094ZM588.094 3.416H603.826V-0.584003H588.094V3.416ZM630.914 14.02V12.02H628.914V14.02H630.914ZM630.914 27.084H628.914V29.084H630.914V27.084ZM651.983 27.084H653.983V25.084H651.983V27.084ZM651.983 39.228V41.228H653.983V39.228H651.983ZM630.914 39.228V37.228H628.914V39.228H630.914ZM630.914 53.396H628.914V55.396H630.914V53.396ZM654.742 53.396H656.742V51.396H654.742V53.396ZM654.742 66V68H656.742V66H654.742ZM615.182 66H613.182V68H615.182V66ZM615.182 1.416V-0.584003H613.182V1.416H615.182ZM654.742 1.416H656.742V-0.584003H654.742V1.416ZM654.742 14.02V16.02H656.742V14.02H654.742ZM628.914 14.02V27.084H632.914V14.02H628.914ZM630.914 29.084H651.983V25.084H630.914V29.084ZM649.983 27.084V39.228H653.983V27.084H649.983ZM651.983 37.228H630.914V41.228H651.983V37.228ZM628.914 39.228V53.396H632.914V39.228H628.914ZM630.914 55.396H654.742V51.396H630.914V55.396ZM652.742 53.396V66H656.742V53.396H652.742ZM654.742 64H615.182V68H654.742V64ZM617.182 66V1.416H613.182V66H617.182ZM615.182 3.416H654.742V-0.584003H615.182V3.416ZM652.742 1.416V14.02H656.742V1.416H652.742ZM654.742 12.02H630.914V16.02H654.742V12.02ZM773.324 1.416L775.259 1.92051L775.912 -0.584003H773.324V1.416ZM756.488 66V68H758.034L758.423 66.5045L756.488 66ZM737.444 66L735.5 66.4712L735.871 68H737.444V66ZM727.14 23.496L729.084 23.0248L725.2 23.009L727.14 23.496ZM716.468 66V68H718.028L718.408 66.487L716.468 66ZM697.424 66L695.485 66.4916L695.868 68H697.424V66ZM681.048 1.416V-0.584003H678.478L679.109 1.90757L681.048 1.416ZM697.884 1.416L699.846 1.0282L699.527 -0.584003H697.884V1.416ZM707.176 48.428L705.214 48.8158L709.119 48.9032L707.176 48.428ZM718.676 1.416V-0.584003H717.106L716.733 0.940773L718.676 1.416ZM735.972 1.416L737.919 0.958767L737.557 -0.584003H735.972V1.416ZM747.012 48.428L745.065 48.8852L748.973 48.8195L747.012 48.428ZM756.396 1.416V-0.584003H754.756L754.435 1.02451L756.396 1.416ZM771.389 0.911491L754.553 65.4955L758.423 66.5045L775.259 1.92051L771.389 0.911491ZM756.488 64H737.444V68H756.488V64ZM739.388 65.5288L729.084 23.0248L725.196 23.9672L735.5 66.4712L739.388 65.5288ZM725.2 23.009L714.528 65.513L718.408 66.487L729.08 23.983L725.2 23.009ZM716.468 64H697.424V68H716.468V64ZM699.363 65.5084L682.987 0.924431L679.109 1.90757L695.485 66.4916L699.363 65.5084ZM681.048 3.416H697.884V-0.584003H681.048V3.416ZM695.922 1.8038L705.214 48.8158L709.138 48.0402L699.846 1.0282L695.922 1.8038ZM709.119 48.9032L720.619 1.89122L716.733 0.940773L705.233 47.9528L709.119 48.9032ZM718.676 3.416H735.972V-0.584003H718.676V3.416ZM734.025 1.87323L745.065 48.8852L748.959 47.9708L737.919 0.958767L734.025 1.87323ZM748.973 48.8195L758.357 1.80749L754.435 1.02451L745.051 48.0365L748.973 48.8195ZM756.396 3.416H773.324V-0.584003H756.396V3.416ZM795.014 62.412L794.035 64.1563L794.044 64.1613L795.014 62.412ZM782.962 50.636L781.23 51.6373L781.238 51.6496L781.245 51.6619L782.962 50.636ZM782.962 16.504L781.245 15.4781L781.24 15.4858L781.236 15.4936L782.962 16.504ZM795.014 4.728L794.044 2.97867L794.035 2.98372L795.014 4.728ZM828.41 4.728L827.431 6.47231L827.44 6.47731L828.41 4.728ZM840.37 16.504L838.635 17.4986L838.639 17.5065L838.644 17.5144L840.37 16.504ZM840.37 50.636L842.096 51.6464L842.101 51.6372L840.37 50.636ZM828.41 62.412L829.388 64.1563L828.41 62.412ZM824.086 47.14L822.607 45.7933L822.6 45.8006L822.594 45.808L824.086 47.14ZM824.086 19.908L822.594 21.24L822.606 21.2541L822.619 21.2679L824.086 19.908ZM799.246 19.816L797.779 18.4561L797.773 18.4634L797.766 18.4706L799.246 19.816ZM799.246 47.232L797.754 48.564L797.766 48.5781L797.779 48.5919L799.246 47.232ZM811.758 64.644C806.01 64.644 800.764 63.3124 795.983 60.6627L794.044 64.1613C799.445 67.1543 805.362 68.644 811.758 68.644V64.644ZM795.992 60.6677C791.273 58.0201 787.508 54.3446 784.679 49.6101L781.245 51.6619C784.426 56.986 788.696 61.1612 794.035 64.1563L795.992 60.6677ZM784.693 49.6348C781.938 44.871 780.546 39.5168 780.546 33.524H776.546C776.546 40.1659 778.097 46.2197 781.23 51.6373L784.693 49.6348ZM780.546 33.524C780.546 27.531 781.938 22.2117 784.688 17.5144L781.236 15.4936C778.097 20.855 776.546 26.8823 776.546 33.524H780.546ZM784.679 17.5299C787.508 12.7954 791.273 9.1199 795.992 6.47229L794.035 2.98372C788.696 5.97877 784.426 10.154 781.245 15.4781L784.679 17.5299ZM795.983 6.47731C800.764 3.82763 806.01 2.496 811.758 2.496V-1.504C805.362 -1.504 799.445 -0.0142975 794.044 2.97869L795.983 6.47731ZM811.758 2.496C817.506 2.496 822.717 3.82758 827.431 6.47229L829.388 2.98371C824.044 -0.0142517 818.154 -1.504 811.758 -1.504V2.496ZM827.44 6.47731C832.213 9.12241 835.934 12.7873 838.635 17.4986L842.105 15.5094C839.04 10.162 834.788 5.97625 829.379 2.97869L827.44 6.47731ZM838.644 17.5144C841.393 22.2117 842.786 27.531 842.786 33.524H846.786C846.786 26.8823 845.234 20.855 842.096 15.4936L838.644 17.5144ZM842.786 33.524C842.786 39.5168 841.393 44.871 838.638 49.6348L842.101 51.6372C845.234 46.2197 846.786 40.1659 846.786 33.524H842.786ZM838.644 49.6256C835.877 54.3517 832.147 58.0222 827.431 60.6677L829.388 64.1563C834.731 61.1591 838.974 56.979 842.096 51.6464L838.644 49.6256ZM827.431 60.6677C822.717 63.3124 817.506 64.644 811.758 64.644V68.644C818.154 68.644 824.044 67.1543 829.388 64.1563L827.431 60.6677ZM811.758 54.292C817.404 54.292 822.084 52.3849 825.578 48.472L822.594 45.808C819.954 48.7644 816.415 50.292 811.758 50.292V54.292ZM825.564 48.4867C829.097 44.6083 830.778 39.5524 830.778 33.524H826.778C826.778 38.7809 825.331 42.8024 822.607 45.7933L825.564 48.4867ZM830.778 33.524C830.778 27.4423 829.101 22.3747 825.552 18.5481L822.619 21.2679C825.327 24.1879 826.778 28.1977 826.778 33.524H830.778ZM825.578 18.576C822.084 14.6631 817.404 12.756 811.758 12.756V16.756C816.415 16.756 819.954 18.2836 822.594 21.24L825.578 18.576ZM811.758 12.756C806.07 12.756 801.338 14.6183 797.779 18.4561L800.712 21.1759C803.41 18.267 807.019 16.756 811.758 16.756V12.756ZM797.766 18.4706C794.283 22.302 792.646 27.3977 792.646 33.524H796.646C796.646 28.1196 798.075 24.0766 800.726 21.1613L797.766 18.4706ZM792.646 33.524C792.646 39.5971 794.287 44.6809 797.754 48.564L800.738 45.9C798.071 42.9138 796.646 38.8589 796.646 33.524H792.646ZM797.779 48.5919C801.338 52.4297 806.07 54.292 811.758 54.292V50.292C807.019 50.292 803.41 48.781 800.712 45.8721L797.779 48.5919ZM886.474 66L884.722 66.9651L885.292 68H886.474V66ZM873.042 41.62L874.794 40.6549L874.224 39.62H873.042V41.62ZM869.27 41.62V39.62H867.27V41.62H869.27ZM869.27 66V68H871.27V66H869.27ZM853.538 66H851.538V68H853.538V66ZM853.538 1.416V-0.584003H851.538V1.416H853.538ZM892.914 4.084L892.02 5.87289L892.032 5.87889L892.914 4.084ZM901.01 11.444L899.271 12.4326L899.276 12.44L899.28 12.4474L901.01 11.444ZM899.998 33.248L898.38 32.0717L898.373 32.0814L898.367 32.0911L899.998 33.248ZM889.326 40.424L888.754 38.5077L886.318 39.2351L887.598 41.431L889.326 40.424ZM904.23 66V68H907.71L905.958 64.993L904.23 66ZM869.27 30.488H867.27V32.488H869.27V30.488ZM885.462 28.372L884.078 26.928L884.063 26.9427L884.048 26.9578L885.462 28.372ZM885.462 16.596L884.048 18.0102L884.063 18.0253L884.078 18.04L885.462 16.596ZM869.27 14.48V12.48H867.27V14.48H869.27ZM888.226 65.0349L874.794 40.6549L871.29 42.5851L884.722 66.9651L888.226 65.0349ZM873.042 39.62H869.27V43.62H873.042V39.62ZM867.27 41.62V66H871.27V41.62H867.27ZM869.27 64H853.538V68H869.27V64ZM855.538 66V1.416H851.538V66H855.538ZM853.538 3.416H879.942V-0.584003H853.538V3.416ZM879.942 3.416C884.806 3.416 888.807 4.26637 892.02 5.87285L893.808 2.29514C889.907 0.344296 885.259 -0.584003 879.942 -0.584003V3.416ZM892.032 5.87889C895.336 7.50284 897.714 9.69433 899.271 12.4326L902.749 10.4554C900.748 6.93766 897.73 4.22248 893.796 2.2891L892.032 5.87889ZM899.28 12.4474C900.869 15.1871 901.678 18.2713 901.678 21.748H905.678C905.678 17.6194 904.708 13.8342 902.74 10.4406L899.28 12.4474ZM901.678 21.748C901.678 25.6319 900.578 29.0507 898.38 32.0717L901.615 34.4243C904.325 30.6986 905.678 26.4508 905.678 21.748H901.678ZM898.367 32.0911C896.28 35.0338 893.133 37.1994 888.754 38.5077L889.898 42.3403C894.964 40.8273 898.932 38.2088 901.629 34.4049L898.367 32.0911ZM887.598 41.431L902.502 67.007L905.958 64.993L891.054 39.417L887.598 41.431ZM904.23 64H886.474V68H904.23V64ZM869.27 32.488H879.022V28.488H869.27V32.488ZM879.022 32.488C882.198 32.488 884.951 31.7114 886.876 29.7862L884.048 26.9578C883.152 27.8539 881.611 28.488 879.022 28.488V32.488ZM886.846 29.816C888.809 27.9344 889.67 25.361 889.67 22.392H885.67C885.67 24.575 885.059 25.9883 884.078 26.928L886.846 29.816ZM889.67 22.392C889.67 19.5128 888.79 17.0152 886.846 15.152L884.078 18.04C885.078 18.9981 885.67 20.3645 885.67 22.392H889.67ZM886.876 15.1818C884.951 13.2566 882.198 12.48 879.022 12.48V16.48C881.611 16.48 883.152 17.1141 884.048 18.0102L886.876 15.1818ZM879.022 12.48H869.27V16.48H879.022V12.48ZM867.27 14.48V30.488H871.27V14.48H867.27ZM929.286 53.856H927.286V55.856H929.286V53.856ZM949.894 53.856H951.894V51.856H949.894V53.856ZM949.894 66V68H951.894V66H949.894ZM913.554 66H911.554V68H913.554V66ZM913.554 1.416V-0.584003H911.554V1.416H913.554ZM929.286 1.416H931.286V-0.584003H929.286V1.416ZM929.286 55.856H949.894V51.856H929.286V55.856ZM947.894 53.856V66H951.894V53.856H947.894ZM949.894 64H913.554V68H949.894V64ZM915.554 66V1.416H911.554V66H915.554ZM913.554 3.416H929.286V-0.584003H913.554V3.416ZM927.286 1.416V53.856H931.286V1.416H927.286ZM999.441 5.464L1000.38 3.69694L999.441 5.464ZM1011.22 16.872L1009.47 17.8525L1009.48 17.8655L1009.49 17.8784L1011.22 16.872ZM1011.22 50.544L1009.48 49.5471L1009.48 49.5552L1009.47 49.5635L1011.22 50.544ZM999.349 61.952L998.421 60.1803L998.413 60.1849L999.349 61.952ZM957.397 66H955.397V68H957.397V66ZM957.397 1.416V-0.584003H955.397V1.416H957.397ZM973.129 14.848V12.848H971.129V14.848H973.129ZM973.129 52.384H971.129V54.384H973.129V52.384ZM981.593 3.416C988.134 3.416 993.751 4.71088 998.505 7.23105L1000.38 3.69694C994.951 0.819782 988.669 -0.584003 981.593 -0.584003V3.416ZM998.505 7.23105C1003.27 9.75468 1006.91 13.2881 1009.47 17.8525L1012.96 15.8915C1010.01 10.6426 1005.8 6.57065 1000.38 3.69694L998.505 7.23105ZM1009.49 17.8784C1012.11 22.378 1013.45 27.6334 1013.45 33.708H1017.45C1017.45 27.0253 1015.97 21.0566 1012.95 15.8656L1009.49 17.8784ZM1013.45 33.708C1013.45 39.717 1012.11 44.9778 1009.48 49.5471L1012.95 51.5409C1015.97 46.2969 1017.45 40.3337 1017.45 33.708H1013.45ZM1009.47 49.5635C1006.91 54.1216 1003.24 57.6548 998.421 60.1803L1000.28 63.7237C1005.76 60.8519 1010 56.7797 1012.96 51.5245L1009.47 49.5635ZM998.413 60.1849C993.656 62.7064 988.069 64 981.593 64V68C988.611 68 994.861 66.5949 1000.29 63.7191L998.413 60.1849ZM981.593 64H957.397V68H981.593V64ZM959.397 66V1.416H955.397V66H959.397ZM957.397 3.416H981.593V-0.584003H957.397V3.416ZM980.581 54.384C986.9 54.384 992.091 52.6486 995.874 48.9354L993.072 46.0806C990.232 48.8688 986.161 50.384 980.581 50.384V54.384ZM995.874 48.9354C999.67 45.2102 1001.44 40.0352 1001.44 33.708H997.441C997.441 39.2795 995.901 43.3045 993.072 46.0806L995.874 48.9354ZM1001.44 33.708C1001.44 27.3788 999.669 22.1834 995.888 18.4018L993.059 21.2302C995.902 24.0726 997.441 28.1385 997.441 33.708H1001.44ZM995.888 18.4018C992.106 14.6202 986.911 12.848 980.581 12.848V16.848C986.151 16.848 990.217 18.3878 993.059 21.2302L995.888 18.4018ZM980.581 12.848H973.129V16.848H980.581V12.848ZM971.129 14.848V52.384H975.129V14.848H971.129ZM973.129 54.384H980.581V50.384H973.129V54.384Z" fill="white" fill-opacity="0.09"/>
</svg>
