<svg width="40" height="40" viewBox="0 0 40 40" fill="none" xmlns="http://www.w3.org/2000/svg">
<g opacity="0.6">
<path fill-rule="evenodd" clip-rule="evenodd" d="M15.465 9.066C16.638 9.012 17.012 9 20 9C22.988 9 23.362 9.013 24.534 9.066C25.706 9.119 26.506 9.306 27.206 9.577C27.939 9.854 28.604 10.287 29.154 10.847C29.714 11.396 30.146 12.06 30.422 12.794C30.694 13.494 30.88 14.294 30.934 15.464C30.988 16.639 31 17.013 31 20C31 22.988 30.987 23.362 30.934 24.535C30.881 25.705 30.694 26.505 30.422 27.205C30.146 27.9391 29.7133 28.6042 29.154 29.154C28.604 29.714 27.939 30.146 27.206 30.422C26.506 30.694 25.706 30.88 24.536 30.934C23.362 30.988 22.988 31 20 31C17.012 31 16.638 30.987 15.465 30.934C14.295 30.881 13.495 30.694 12.795 30.422C12.0609 30.146 11.3958 29.7133 10.846 29.154C10.2864 28.6047 9.85331 27.9399 9.577 27.206C9.306 26.506 9.12 25.706 9.066 24.536C9.012 23.361 9 22.987 9 20C9 17.012 9.013 16.638 9.066 15.466C9.119 14.294 9.306 13.494 9.577 12.794C9.85372 12.0601 10.2871 11.3953 10.847 10.846C11.396 10.2865 12.0605 9.85344 12.794 9.577C13.494 9.306 14.294 9.12 15.464 9.066H15.465ZM24.445 11.046C23.285 10.993 22.937 10.982 20 10.982C17.063 10.982 16.715 10.993 15.555 11.046C14.482 11.095 13.9 11.274 13.512 11.425C12.999 11.625 12.632 11.862 12.247 12.247C11.882 12.6021 11.6012 13.0343 11.425 13.512C11.274 13.9 11.095 14.482 11.046 15.555C10.993 16.715 10.982 17.063 10.982 20C10.982 22.937 10.993 23.285 11.046 24.445C11.095 25.518 11.274 26.1 11.425 26.488C11.601 26.965 11.882 27.398 12.247 27.753C12.602 28.118 13.035 28.399 13.512 28.575C13.9 28.726 14.482 28.905 15.555 28.954C16.715 29.007 17.062 29.018 20 29.018C22.938 29.018 23.285 29.007 24.445 28.954C25.518 28.905 26.1 28.726 26.488 28.575C27.001 28.375 27.368 28.138 27.753 27.753C28.118 27.398 28.399 26.965 28.575 26.488C28.726 26.1 28.905 25.518 28.954 24.445C29.007 23.285 29.018 22.937 29.018 20C29.018 17.063 29.007 16.715 28.954 15.555C28.905 14.482 28.726 13.9 28.575 13.512C28.375 12.999 28.138 12.632 27.753 12.247C27.3979 11.8821 26.9657 11.6012 26.488 11.425C26.1 11.274 25.518 11.095 24.445 11.046ZM18.595 23.391C19.3797 23.7176 20.2534 23.7617 21.0669 23.5157C21.8805 23.2697 22.5834 22.7489 23.0556 22.0422C23.5278 21.3356 23.7401 20.4869 23.656 19.6411C23.572 18.7953 23.197 18.005 22.595 17.405C22.2112 17.0215 21.7472 16.7278 21.2363 16.5451C20.7255 16.3625 20.1804 16.2954 19.6405 16.3486C19.1006 16.4019 18.5792 16.5742 18.1138 16.8531C17.6485 17.1321 17.2507 17.5107 16.9493 17.9619C16.6479 18.413 16.4502 18.9253 16.3705 19.462C16.2908 19.9986 16.3312 20.5463 16.4885 21.0655C16.6459 21.5847 16.9165 22.0626 17.2807 22.4647C17.645 22.8668 18.0938 23.1832 18.595 23.391ZM16.002 16.002C16.527 15.477 17.1503 15.0605 17.8363 14.7764C18.5223 14.4922 19.2575 14.346 20 14.346C20.7425 14.346 21.4777 14.4922 22.1637 14.7764C22.8497 15.0605 23.473 15.477 23.998 16.002C24.523 16.527 24.9395 17.1503 25.2236 17.8363C25.5078 18.5223 25.654 19.2575 25.654 20C25.654 20.7425 25.5078 21.4777 25.2236 22.1637C24.9395 22.8497 24.523 23.473 23.998 23.998C22.9377 25.0583 21.4995 25.654 20 25.654C18.5005 25.654 17.0623 25.0583 16.002 23.998C14.9417 22.9377 14.346 21.4995 14.346 20C14.346 18.5005 14.9417 17.0623 16.002 16.002ZM26.908 15.188C27.0381 15.0653 27.1423 14.9177 27.2143 14.754C27.2863 14.5903 27.3248 14.4138 27.3274 14.2349C27.33 14.0561 27.2967 13.8785 27.2295 13.7128C27.1622 13.5471 27.0624 13.3965 26.936 13.27C26.8095 13.1436 26.6589 13.0438 26.4932 12.9765C26.3275 12.9093 26.1499 12.876 25.9711 12.8786C25.7922 12.8812 25.6157 12.9197 25.452 12.9917C25.2883 13.0637 25.1407 13.1679 25.018 13.298C24.7793 13.551 24.6486 13.8871 24.6537 14.2349C24.6588 14.5827 24.7992 14.9149 25.0452 15.1608C25.2911 15.4068 25.6233 15.5472 25.9711 15.5523C26.3189 15.5574 26.655 15.4267 26.908 15.188Z" fill="white"/>
</g>
<circle cx="20" cy="20" r="19.5" stroke="white" stroke-opacity="0.6"/>
</svg>
