<svg width="40" height="40" viewBox="0 0 40 40" fill="none" xmlns="http://www.w3.org/2000/svg">
<g opacity="0.6">
<path d="M30.5 14L28.25 14.375L29.75 12.5L27.125 13.25C23.75 9.49999 18.5 13.625 20 17C14 17 11 12.5 11 12.5C11 12.5 8.75 15.875 12.5 18.5L10.25 17.75C10.25 20 11.75 21.5 14.375 22.25H11.75C13.25 25.25 15.875 25.25 15.875 25.25C15.875 25.25 13.625 27.125 9.5 27.125C21.875 33.125 29.375 21.875 28.25 15.875L30.5 14Z" fill="white"/>
</g>
<circle cx="20" cy="20" r="19.5" stroke="white" stroke-opacity="0.6"/>
</svg>
