<svg width="558" height="555" viewBox="0 0 558 555" fill="none" xmlns="http://www.w3.org/2000/svg">
<rect x="96" y="20" width="462" height="297" rx="20" fill="#111010" fill-opacity="0.1"/>
<rect x="76" width="462" height="297" rx="20" fill="white" fill-opacity="0.15"/>
<rect x="94" y="148" width="428" height="57" rx="28.5" fill="white" fill-opacity="0.1"/>
<rect x="153" y="166" width="50.026" height="7" rx="3.5" fill="#E0E3EE"/>
<rect x="153" y="180" width="156" height="7" rx="3.5" fill="#E0E3EE"/>
<circle cx="124" cy="176" r="15" fill="#0C8BFD"/>
<path d="M118 176.4L121.126 180L130 171" stroke="white" stroke-width="2" stroke-linecap="round"/>
<rect x="94" y="217" width="428" height="57" rx="28.5" fill="white" fill-opacity="0.1"/>
<rect x="153" y="235" width="50.026" height="7" rx="3.5" fill="#E0E3EE"/>
<rect x="153" y="249" width="156" height="7" rx="3.5" fill="#E0E3EE"/>
<circle cx="124" cy="245" r="15" fill="#0C8BFD"/>
<path d="M118 245.4L121.126 249L130 240" stroke="white" stroke-width="2" stroke-linecap="round"/>
<rect x="110" y="107" width="59" height="7" rx="3.5" fill="#E0E3EE"/>
<circle cx="98" cy="111" r="6" fill="#E0E3EE"/>
<rect x="288" y="107" width="59" height="7" rx="3.5" fill="#E0E3EE"/>
<circle cx="276" cy="111" r="6" fill="#E0E3EE"/>
<rect x="199" y="107" width="59" height="7" rx="3.5" fill="#E0E3EE"/>
<circle cx="187" cy="111" r="6" fill="#E0E3EE"/>
<rect x="377" y="107" width="59" height="7" rx="3.5" fill="#E0E3EE"/>
<circle cx="365" cy="111" r="6" fill="#E0E3EE"/>
<rect x="161" y="20" width="337" height="7" rx="3.5" fill="#E0E3EE"/>
<circle cx="99.5" cy="23.5" r="7.5" fill="#E0E3EE"/>
<circle cx="118.5" cy="23.5" r="7.5" fill="#E0E3EE"/>
<circle cx="137.5" cy="23.5" r="7.5" fill="#E0E3EE"/>
<circle cx="514.5" cy="23.5" r="7.5" fill="#E0E3EE"/>
<rect x="92" y="49" width="430" height="44" rx="22" fill="white" fill-opacity="0.1"/>
<path d="M489.5 80.75C483.85 80.75 479.25 76.15 479.25 70.5C479.25 64.85 483.85 60.25 489.5 60.25C495.15 60.25 499.75 64.85 499.75 70.5C499.75 76.15 495.15 80.75 489.5 80.75ZM489.5 61.75C484.67 61.75 480.75 65.68 480.75 70.5C480.75 75.32 484.67 79.25 489.5 79.25C494.33 79.25 498.25 75.32 498.25 70.5C498.25 65.68 494.33 61.75 489.5 61.75Z" fill="#CDD1DD"/>
<path d="M499.999 81.7499C499.809 81.7499 499.619 81.6799 499.469 81.5299L497.469 79.5299C497.179 79.2399 497.179 78.7599 497.469 78.4699C497.759 78.1799 498.239 78.1799 498.529 78.4699L500.529 80.4699C500.819 80.7599 500.819 81.2399 500.529 81.5299C500.379 81.6799 500.189 81.7499 499.999 81.7499Z" fill="#CDD1DD"/>
<path d="M107.806 79H109.852L111.722 73.258C112.118 71.96 112.316 71.256 112.426 70.728C112.536 71.322 112.756 72.158 113.108 73.236L114.978 79H116.936L120.61 68.242H118.454L116.65 73.83C116.342 74.776 116.144 75.524 115.968 76.382C115.792 75.612 115.44 74.358 115.264 73.83L113.482 68.242H111.37L109.566 73.83C109.324 74.534 109.038 75.436 108.862 76.382C108.664 75.436 108.444 74.622 108.202 73.83L106.42 68.242H104.286L107.806 79ZM124.693 79H126.739L128.609 73.258C129.005 71.96 129.203 71.256 129.313 70.728C129.423 71.322 129.643 72.158 129.995 73.236L131.865 79H133.823L137.497 68.242H135.341L133.537 73.83C133.229 74.776 133.031 75.524 132.855 76.382C132.679 75.612 132.327 74.358 132.151 73.83L130.369 68.242H128.257L126.453 73.83C126.211 74.534 125.925 75.436 125.749 76.382C125.551 75.436 125.331 74.622 125.089 73.83L123.307 68.242H121.173L124.693 79ZM141.579 79H143.625L145.495 73.258C145.891 71.96 146.089 71.256 146.199 70.728C146.309 71.322 146.529 72.158 146.881 73.236L148.751 79H150.709L154.383 68.242H152.227L150.423 73.83C150.115 74.776 149.917 75.524 149.741 76.382C149.565 75.612 149.213 74.358 149.037 73.83L147.255 68.242H145.143L143.339 73.83C143.097 74.534 142.811 75.436 142.635 76.382C142.437 75.436 142.217 74.622 141.975 73.83L140.193 68.242H138.059L141.579 79ZM155.956 79.264C156.792 79.264 157.518 78.56 157.518 77.724C157.518 76.866 156.792 76.162 155.956 76.162C155.098 76.162 154.372 76.866 154.372 77.724C154.372 78.56 155.098 79.264 155.956 79.264Z" fill="white"/>
<rect x="26" y="366" width="335" height="189" rx="20" fill="#0C8BFD" fill-opacity="0.2"/>
<rect x="6" y="346" width="335" height="189" rx="20" fill="#0C8BFD"/>
<path d="M29.15 384.22C32.626 384.22 34.936 382.086 34.936 379.358C34.936 376.212 33.022 375.156 29.326 374.65C26.598 374.254 26.07 373.616 26.07 372.34C26.07 371.13 26.994 370.272 28.776 370.272C30.58 370.272 31.526 370.976 31.812 372.626H34.496C34.188 369.612 32.164 368.072 28.776 368.072C25.498 368.072 23.298 370.008 23.298 372.582C23.298 375.53 25.08 376.674 28.842 377.18C31.394 377.598 32.12 378.148 32.12 379.6C32.12 381.052 30.888 382.02 29.15 382.02C26.488 382.02 25.85 380.7 25.652 379.116H22.836C23.056 382.086 24.86 384.22 29.15 384.22ZM37.5488 387.938H40.2108V382.196C40.8268 383.318 42.1468 384.22 43.9728 384.22C46.9428 384.22 49.0768 381.976 49.0768 378.28V378.104C49.0768 374.386 46.8548 372.252 43.9728 372.252C42.2788 372.252 40.8488 373.242 40.2108 374.342V372.494H37.5488V387.938ZM43.3128 382.108C41.3768 382.108 40.1228 380.898 40.1228 378.324V378.148C40.1228 375.596 41.4428 374.342 43.2908 374.342C45.0288 374.342 46.3488 375.596 46.3488 378.148V378.324C46.3488 380.788 45.2708 382.108 43.3128 382.108ZM56.5307 384.22C59.4787 384.22 61.4367 382.9 61.8107 380.48H59.2367C59.0387 381.602 58.2027 382.24 56.5967 382.24C54.6167 382.24 53.5167 381.008 53.4287 378.83H61.8547V378.06C61.8547 373.946 59.2807 372.252 56.4207 372.252C53.1427 372.252 50.7007 374.628 50.7007 378.192V378.368C50.7007 381.998 53.1427 384.22 56.5307 384.22ZM53.4727 377.048C53.7367 375.266 54.8147 374.188 56.4207 374.188C58.0707 374.188 59.0827 375.068 59.2147 377.048H53.4727ZM69.2924 384.22C72.2404 384.22 74.1984 382.9 74.5724 380.48H71.9984C71.8004 381.602 70.9644 382.24 69.3584 382.24C67.3784 382.24 66.2784 381.008 66.1904 378.83H74.6164V378.06C74.6164 373.946 72.0424 372.252 69.1824 372.252C65.9044 372.252 63.4624 374.628 63.4624 378.192V378.368C63.4624 381.998 65.9044 384.22 69.2924 384.22ZM66.2344 377.048C66.4984 375.266 67.5764 374.188 69.1824 374.188C70.8324 374.188 71.8444 375.068 71.9764 377.048H66.2344ZM81.3062 384.22C83.0002 384.22 84.4742 383.208 85.0902 382.064V384H87.7522V367.17H85.0902V374.254C84.4522 373.11 83.2862 372.252 81.4162 372.252C78.4242 372.252 76.2462 374.584 76.2462 378.258V378.434C76.2462 382.174 78.4242 384.22 81.3062 384.22ZM81.9662 382.108C80.2502 382.108 78.9742 380.898 78.9742 378.368V378.192C78.9742 375.706 80.1182 374.342 82.0762 374.342C84.0122 374.342 85.1782 375.596 85.1782 378.126V378.302C85.1782 380.876 83.8142 382.108 81.9662 382.108ZM96.1582 387.938H98.8202V382.196C99.4362 383.318 100.756 384.22 102.582 384.22C105.552 384.22 107.686 381.976 107.686 378.28V378.104C107.686 374.386 105.464 372.252 102.582 372.252C100.888 372.252 99.4582 373.242 98.8202 374.342V372.494H96.1582V387.938ZM101.922 382.108C99.9862 382.108 98.7322 380.898 98.7322 378.324V378.148C98.7322 375.596 100.052 374.342 101.9 374.342C103.638 374.342 104.958 375.596 104.958 378.148V378.324C104.958 380.788 103.88 382.108 101.922 382.108ZM115.14 384.22C118.088 384.22 120.046 382.9 120.42 380.48H117.846C117.648 381.602 116.812 382.24 115.206 382.24C113.226 382.24 112.126 381.008 112.038 378.83H120.464V378.06C120.464 373.946 117.89 372.252 115.03 372.252C111.752 372.252 109.31 374.628 109.31 378.192V378.368C109.31 381.998 111.752 384.22 115.14 384.22ZM112.082 377.048C112.346 375.266 113.424 374.188 115.03 374.188C116.68 374.188 117.692 375.068 117.824 377.048H112.082ZM122.842 384H125.504V378.016C125.504 375.574 126.912 374.826 129.244 374.804V372.318C127.308 372.34 126.23 373.198 125.504 374.65V372.494H122.842V384ZM132.263 384H134.925V374.496H137.543V372.494H134.925V370.844C134.925 369.854 135.365 369.15 136.443 369.15C136.927 369.15 137.345 369.238 137.653 369.348V367.28C137.169 367.126 136.773 367.06 136.135 367.06C133.671 367.06 132.263 368.424 132.263 370.954V372.494H130.701V374.496H132.263V384ZM144.49 382.152C142.466 382.152 141.3 380.678 141.3 378.324V378.148C141.3 375.772 142.51 374.342 144.49 374.342C146.47 374.342 147.658 375.794 147.658 378.17V378.324C147.658 380.678 146.47 382.152 144.49 382.152ZM144.468 384.22C147.856 384.22 150.386 381.888 150.386 378.302V378.126C150.386 374.606 147.856 372.252 144.49 372.252C141.102 372.252 138.572 374.628 138.572 378.192V378.368C138.572 381.866 141.08 384.22 144.468 384.22ZM152.791 384H155.453V377.114C155.453 375.354 156.663 374.474 157.983 374.474C159.281 374.474 160.029 375.2 160.029 376.894V384H162.691V377.114C162.691 375.354 163.901 374.474 165.221 374.474C166.541 374.474 167.267 375.2 167.267 376.894V384H169.929V376.718C169.929 373.55 168.213 372.252 166.101 372.252C164.671 372.252 163.087 372.89 162.207 374.32C161.635 372.89 160.447 372.252 158.951 372.252C157.257 372.252 156.003 373.176 155.453 374.254V372.494H152.791V384ZM176 384.22C177.76 384.22 178.772 383.582 179.52 382.592V384H182.138V376.454C182.138 373.308 180.114 372.252 177.54 372.252C174.966 372.252 172.832 373.374 172.612 376.058H175.186C175.318 374.914 176 374.254 177.386 374.254C178.948 374.254 179.476 375.024 179.476 376.564V377.158H178.046C174.746 377.158 172.15 378.126 172.15 380.81C172.15 383.208 173.888 384.22 176 384.22ZM176.638 382.306C175.318 382.306 174.79 381.668 174.79 380.7C174.79 379.292 176.088 378.83 178.112 378.83H179.476V379.974C179.476 381.448 178.266 382.306 176.638 382.306ZM185.189 384H187.851V377.224C187.851 375.398 189.061 374.474 190.557 374.474C192.141 374.474 192.845 375.266 192.845 377.004V384H195.507V376.762C195.507 373.594 193.879 372.252 191.569 372.252C189.677 372.252 188.401 373.198 187.851 374.32V372.494H185.189V384ZM203.612 384.22C206.736 384.22 208.738 382.35 208.936 379.71H206.494C206.34 381.338 205.13 382.174 203.722 382.174C201.764 382.174 200.532 380.854 200.532 378.346V378.17C200.532 375.794 201.83 374.386 203.656 374.386C205.064 374.386 206.076 375.024 206.296 376.564H208.87C208.562 373.396 206.164 372.252 203.612 372.252C200.4 372.252 197.804 374.562 197.804 378.214V378.39C197.804 382.064 200.312 384.22 203.612 384.22ZM216.289 384.22C219.237 384.22 221.195 382.9 221.569 380.48H218.995C218.797 381.602 217.961 382.24 216.355 382.24C214.375 382.24 213.275 381.008 213.187 378.83H221.613V378.06C221.613 373.946 219.039 372.252 216.179 372.252C212.901 372.252 210.459 374.628 210.459 378.192V378.368C210.459 381.998 212.901 384.22 216.289 384.22ZM213.231 377.048C213.495 375.266 214.573 374.188 216.179 374.188C217.829 374.188 218.841 375.068 218.973 377.048H213.231ZM231.608 384H234.336L236.668 376.256L238.802 384H241.508L245.116 372.494H242.52L240.122 380.81L237.878 372.494H235.656L233.214 380.81L230.926 372.494H228.088L231.608 384ZM251.888 384.22C254.836 384.22 256.794 382.9 257.168 380.48H254.594C254.396 381.602 253.56 382.24 251.954 382.24C249.974 382.24 248.874 381.008 248.786 378.83H257.212V378.06C257.212 373.946 254.638 372.252 251.778 372.252C248.5 372.252 246.058 374.628 246.058 378.192V378.368C246.058 381.998 248.5 384.22 251.888 384.22ZM248.83 377.048C249.094 375.266 250.172 374.188 251.778 374.188C253.428 374.188 254.44 375.068 254.572 377.048H248.83ZM266.014 384.22C268.984 384.22 271.118 381.976 271.118 378.28V378.104C271.118 374.386 268.896 372.252 266.014 372.252C264.32 372.252 262.89 373.242 262.252 374.342V367.17H259.59V384H262.252V382.152C262.868 383.318 264.188 384.22 266.014 384.22ZM265.354 382.108C263.418 382.108 262.164 380.898 262.164 378.324V378.148C262.164 375.596 263.484 374.342 265.332 374.342C267.07 374.342 268.39 375.596 268.39 378.148V378.324C268.39 380.788 267.312 382.108 265.354 382.108ZM277.45 384.22C280.398 384.22 282.048 382.878 282.048 380.546C282.048 378.104 280.442 377.444 277.736 377.026C275.91 376.718 275.36 376.388 275.36 375.552C275.36 374.738 276.042 374.188 277.186 374.188C278.418 374.188 279.012 374.672 279.232 375.728H281.696C281.41 373.132 279.54 372.252 277.186 372.252C275.03 372.252 272.874 373.396 272.874 375.706C272.874 377.862 273.996 378.72 277.032 379.204C278.726 379.49 279.496 379.842 279.496 380.788C279.496 381.756 278.858 382.262 277.428 382.262C275.866 382.262 275.272 381.58 275.14 380.414H272.632C272.742 382.856 274.48 384.22 277.45 384.22ZM284.449 384H287.111V372.494H284.449V384ZM285.747 370.602C286.627 370.602 287.331 369.942 287.331 369.084C287.331 368.204 286.627 367.544 285.747 367.544C284.867 367.544 284.163 368.204 284.163 369.084C284.163 369.942 284.867 370.602 285.747 370.602ZM294.271 384.198C295.085 384.198 295.657 384.066 296.075 383.912V381.8C295.701 381.954 295.305 382.02 294.777 382.02C293.941 382.02 293.457 381.558 293.457 380.546V374.496H295.987V372.494H293.457V369.964H290.795V372.494H289.255V374.496H290.795V380.788C290.795 382.966 291.983 384.198 294.271 384.198ZM303.537 384.22C306.485 384.22 308.443 382.9 308.817 380.48H306.243C306.045 381.602 305.209 382.24 303.603 382.24C301.623 382.24 300.523 381.008 300.435 378.83H308.861V378.06C308.861 373.946 306.287 372.252 303.427 372.252C300.149 372.252 297.707 374.628 297.707 378.192V378.368C297.707 381.998 300.149 384.22 303.537 384.22ZM300.479 377.048C300.743 375.266 301.821 374.188 303.427 374.188C305.077 374.188 306.089 375.068 306.221 377.048H300.479Z" fill="white"/>
<path d="M216.764 455.004C216.764 463.104 220.76 468.468 227.492 468.468C234.188 468.468 238.184 463.104 238.184 455.004C238.184 446.94 234.008 441.468 227.492 441.468C220.94 441.468 216.764 446.94 216.764 455.004ZM220.256 455.004C220.256 448.524 222.92 444.636 227.492 444.636C232.064 444.636 234.692 448.524 234.692 455.004C234.692 461.412 232.064 465.3 227.492 465.3C222.92 465.3 220.256 461.412 220.256 455.004ZM246.008 466.596C246.008 464.616 244.784 463.356 243.272 463.356C241.832 463.356 240.86 464.4 240.86 465.84C240.86 467.172 241.868 468.036 243.056 468.036C243.488 468.036 243.776 467.964 244.028 467.82C244.028 468.936 242.984 469.908 241.508 470.16V471.672C244.064 471.348 246.008 469.188 246.008 466.596ZM252.248 445.14V468H255.632V441.972H246.776V445.14H252.248ZM277.853 467.964V464.688H265.829L271.229 460.008C275.837 456.012 277.673 453.384 277.673 449.676C277.673 444.672 274.325 441.504 269.105 441.504C263.813 441.504 260.285 445.14 260.177 450.72H263.705C263.777 447.012 265.865 444.672 269.069 444.672C272.201 444.672 274.073 446.616 274.073 449.892C274.073 452.664 272.885 454.428 268.673 458.064L260.285 465.3V468L277.853 467.964ZM288.693 454.536C292.833 454.536 294.993 456.624 294.993 459.756C294.993 463.104 292.797 465.264 289.413 465.264C286.137 465.264 284.049 463.284 284.049 459.9H280.557C280.557 465.3 284.229 468.432 289.341 468.432C294.633 468.432 298.593 465.084 298.593 459.828C298.593 455.148 295.245 452.16 290.817 451.62L297.945 444.816V441.972H281.781V445.104H293.481L286.101 452.196V454.536H288.693ZM300.946 462.888C300.946 466.236 303.574 468.432 307.714 468.432C311.89 468.432 314.77 466.308 314.77 462.96C314.77 460.332 313.294 458.964 310.306 458.244L307.21 457.488C305.482 457.056 304.618 456.264 304.618 455.076C304.618 453.456 305.806 452.52 307.93 452.52C309.982 452.52 311.17 453.636 311.242 455.4H314.482C314.41 452.052 311.89 449.892 308.038 449.892C304.15 449.892 301.414 451.944 301.414 455.184C301.414 457.776 302.89 459.324 306.022 460.08L309.118 460.8C310.954 461.268 311.53 461.988 311.53 463.176C311.53 464.796 310.162 465.768 307.786 465.768C305.554 465.768 304.186 464.688 304.186 462.888H300.946Z" fill="white"/>
<rect x="22" y="408" width="183" height="46" rx="23" fill="white" fill-opacity="0.1"/>
<rect x="68" y="420" width="50.026" height="7" rx="3.5" fill="#E0E3EE"/>
<rect x="68" y="434" width="124" height="7" rx="3.5" fill="#E0E3EE"/>
<path d="M52.895 429.507H49.29V421.107C49.29 419.147 48.2283 418.75 46.9333 420.22L46 421.282L38.1017 430.265C37.0167 431.49 37.4717 432.493 39.105 432.493H42.71V440.893C42.71 442.853 43.7717 443.25 45.0667 441.78L46 440.718L53.8983 431.735C54.9833 430.51 54.5283 429.507 52.895 429.507Z" fill="white"/>
<rect x="22" y="466" width="183" height="46" rx="23" fill="white" fill-opacity="0.1"/>
<rect x="68" y="478" width="50.026" height="7" rx="3.5" fill="#E0E3EE"/>
<rect x="68" y="492" width="124" height="7" rx="3.5" fill="#E0E3EE"/>
<path d="M42.8733 490.493H46.4783V498.893C46.4783 500.13 48.0183 500.713 48.835 499.78L57.6666 489.747C58.4366 488.872 57.8183 487.507 56.6516 487.507H53.0466V479.107C53.0466 477.87 51.5066 477.287 50.69 478.22L41.8583 488.253C41.1 489.128 41.7183 490.493 42.8733 490.493Z" fill="white"/>
<path d="M41.9167 480.542H33.75C33.2717 480.542 32.875 480.145 32.875 479.667C32.875 479.188 33.2717 478.792 33.75 478.792H41.9167C42.395 478.792 42.7917 479.188 42.7917 479.667C42.7917 480.145 42.395 480.542 41.9167 480.542Z" fill="white"/>
<path d="M40.75 499.208H33.75C33.2717 499.208 32.875 498.812 32.875 498.333C32.875 497.855 33.2717 497.458 33.75 497.458H40.75C41.2283 497.458 41.625 497.855 41.625 498.333C41.625 498.812 41.2283 499.208 40.75 499.208Z" fill="white"/>
<path d="M37.25 489.875H33.75C33.2717 489.875 32.875 489.478 32.875 489C32.875 488.522 33.2717 488.125 33.75 488.125H37.25C37.7283 488.125 38.125 488.522 38.125 489C38.125 489.478 37.7283 489.875 37.25 489.875Z" fill="white"/>
<g clip-path="url(#clip0_6_1347)">
<path d="M477.829 345.42C478.81 345.543 479.179 345.42 479.547 345.543C502.009 359.083 517.228 378.287 522.997 404.137C524.47 410.661 524.225 417.431 522.506 424.079C518.947 438.358 507.041 448.206 492.435 449.067C484.825 449.56 477.46 448.698 470.832 444.513C470.341 440.943 469.973 437.373 469.237 434.049C468.009 428.633 465.186 424.202 460.154 421.494C456.472 419.401 452.789 419.401 450.825 421.37C448.248 423.955 448.248 427.402 449.844 430.233C452.053 434.172 454.753 437.865 457.576 441.312C459.417 443.528 461.872 445.374 464.081 447.221C461.995 461.131 448.862 467.039 433.151 461.254C432.66 459.284 432.169 457.192 431.555 455.222C429.1 447.959 424.559 442.42 417.194 439.835C414.371 438.85 411.303 438.481 408.848 441.066C407.007 443.035 407.007 446.482 408.971 449.929C412.162 455.345 416.949 459.161 422.104 462.485C423.945 463.593 425.786 464.7 427.627 465.685C425.173 487.227 405.902 502.491 387 493.874C387.123 495.475 387 496.829 387.491 497.567C388.105 498.429 389.455 498.921 390.559 499.168C400.992 501.137 410.689 499.906 418.667 492.274C424.682 486.612 428.732 479.718 431.432 471.84C431.801 470.732 432.169 469.624 432.66 468.516C432.66 468.393 432.905 468.27 433.396 467.901C434.501 468.024 435.851 468.024 437.201 468.27C453.648 470.855 462.24 466.424 469.85 451.037C471.323 451.529 473.042 452.022 474.637 452.637C484.088 455.838 493.539 456.084 503.113 452.883C518.701 447.713 528.766 434.296 529.871 417.308C530.485 408.076 528.889 399.213 525.575 390.596C517.474 369.793 504.218 353.421 484.334 342.712C483.352 342.096 482.247 341.604 481.265 340.988C481.143 340.865 481.02 340.619 480.652 339.88C484.825 338.896 488.753 339.265 492.68 339.511C496.485 339.634 500.413 340.003 504.586 340.25C504.218 337.049 502.5 335.818 500.413 335.08C497.958 334.341 495.503 333.356 493.048 333.233C486.42 332.987 479.67 332.864 472.919 333.233C467.641 333.602 466.168 336.434 468.5 340.742C473.533 349.851 478.688 358.96 483.843 368.069C484.702 369.547 485.807 370.778 487.157 372.501C489.489 369.793 488.507 367.823 487.648 365.977C484.211 359.33 481.143 352.682 477.829 345.42ZM412.53 444.759C420.999 445.867 426.277 451.283 426.645 458.915C420.999 455.222 415.599 451.898 412.53 444.759ZM454.017 425.679C461.258 427.402 464.695 432.326 463.959 439.835C459.295 435.896 455.244 432.203 454.017 425.679Z" fill="white"/>
</g>
<g clip-path="url(#clip1_6_1347)">
<path d="M8.88231 291C6.92933 290.072 5.72034 289.886 5.34835 289.237C3.95335 286.824 2.37236 284.411 1.62837 281.719C-0.603622 274.573 -0.324624 267.334 1.16337 260.095C3.67435 247.752 9.25431 236.801 16.2293 226.406C16.9733 225.293 17.6243 224.179 18.3683 222.973C18.3683 222.88 18.2753 222.694 18.0893 222.416C16.0433 222.973 13.9043 223.529 11.8583 223.994C10.7423 224.179 9.44031 224.179 8.32431 223.808C7.67332 223.622 6.74334 222.601 6.74334 221.952C6.74334 221.116 7.39432 220.096 7.95232 219.353C8.41732 218.889 9.25432 218.796 9.99832 218.611C15.5783 217.219 21.1583 215.641 26.8312 214.342C31.6672 213.228 33.2482 214.806 32.9692 219.539C32.6902 224.458 32.5972 229.376 32.4112 234.202C32.3182 235.687 32.0392 237.265 31.8532 238.935C27.9472 237.172 27.9472 237.172 26.5522 222.137C20.6932 228.634 16.7873 235.687 13.1603 242.926C9.53332 250.165 7.11534 257.775 5.81334 265.849C4.51135 274.202 6.09233 282.091 8.88231 291Z" fill="white"/>
</g>
<defs>
<clipPath id="clip0_6_1347">
<rect width="143" height="167" fill="white" transform="matrix(1 0 0 -1 387 500)"/>
</clipPath>
<clipPath id="clip1_6_1347">
<rect width="33" height="77" fill="white" transform="translate(0 214)"/>
</clipPath>
</defs>
</svg>
