<svg width="180" height="36" viewBox="0 0 180 36" fill="none" xmlns="http://www.w3.org/2000/svg">
<path d="M16.0979 5.8541C16.6966 4.01148 19.3034 4.01148 19.9021 5.8541L21.5922 11.0557C21.86 11.8798 22.6279 12.4377 23.4943 12.4377H28.9636C30.9011 12.4377 31.7066 14.9169 30.1392 16.0557L25.7145 19.2705C25.0135 19.7798 24.7202 20.6825 24.9879 21.5066L26.678 26.7082C27.2767 28.5508 25.1678 30.0831 23.6003 28.9443L19.1756 25.7295C18.4746 25.2202 17.5254 25.2202 16.8244 25.7295L12.3997 28.9443C10.8322 30.0831 8.72327 28.5508 9.32198 26.7082L11.0121 21.5066C11.2798 20.6825 10.9865 19.7798 10.2855 19.2705L5.86078 16.0557C4.29335 14.9169 5.0989 12.4377 7.03635 12.4377H12.5057C13.3721 12.4377 14.14 11.8798 14.4078 11.0557L16.0979 5.8541Z" fill="#FAAE4B"/>
<path d="M52.0979 5.8541C52.6966 4.01148 55.3034 4.01148 55.9021 5.8541L57.5922 11.0557C57.86 11.8798 58.6279 12.4377 59.4943 12.4377H64.9636C66.9011 12.4377 67.7066 14.9169 66.1392 16.0557L61.7145 19.2705C61.0135 19.7798 60.7202 20.6825 60.9879 21.5066L62.678 26.7082C63.2767 28.5508 61.1678 30.0831 59.6003 28.9443L55.1756 25.7295C54.4746 25.2202 53.5254 25.2202 52.8244 25.7295L48.3997 28.9443C46.8322 30.0831 44.7233 28.5508 45.322 26.7082L47.0121 21.5066C47.2798 20.6825 46.9865 19.7798 46.2855 19.2705L41.8608 16.0557C40.2934 14.9169 41.0989 12.4377 43.0364 12.4377H48.5057C49.3721 12.4377 50.14 11.8798 50.4078 11.0557L52.0979 5.8541Z" fill="#FAAE4B"/>
<path d="M88.0979 5.8541C88.6966 4.01148 91.3034 4.01148 91.9021 5.8541L93.5922 11.0557C93.86 11.8798 94.6279 12.4377 95.4943 12.4377H100.964C102.901 12.4377 103.707 14.9169 102.139 16.0557L97.7145 19.2705C97.0135 19.7798 96.7202 20.6825 96.9879 21.5066L98.678 26.7082C99.2767 28.5508 97.1678 30.0831 95.6003 28.9443L91.1756 25.7295C90.4746 25.2202 89.5254 25.2202 88.8244 25.7295L84.3997 28.9443C82.8322 30.0831 80.7233 28.5508 81.322 26.7082L83.0121 21.5066C83.2798 20.6825 82.9865 19.7798 82.2855 19.2705L77.8608 16.0557C76.2934 14.9169 77.0989 12.4377 79.0364 12.4377H84.5057C85.3721 12.4377 86.14 11.8798 86.4078 11.0557L88.0979 5.8541Z" fill="#FAAE4B"/>
<path d="M124.098 5.8541C124.697 4.01148 127.303 4.01148 127.902 5.8541L129.592 11.0557C129.86 11.8798 130.628 12.4377 131.494 12.4377H136.964C138.901 12.4377 139.707 14.9169 138.139 16.0557L133.714 19.2705C133.013 19.7798 132.72 20.6825 132.988 21.5066L134.678 26.7082C135.277 28.5508 133.168 30.0831 131.6 28.9443L127.176 25.7295C126.475 25.2202 125.525 25.2202 124.824 25.7295L120.4 28.9443C118.832 30.0831 116.723 28.5508 117.322 26.7082L119.012 21.5066C119.28 20.6825 118.987 19.7798 118.286 19.2705L113.861 16.0557C112.293 14.9169 113.099 12.4377 115.036 12.4377H120.506C121.372 12.4377 122.14 11.8798 122.408 11.0557L124.098 5.8541Z" fill="#FAAE4B"/>
<path d="M160.098 5.8541C160.697 4.01148 163.303 4.01148 163.902 5.8541L165.592 11.0557C165.86 11.8798 166.628 12.4377 167.494 12.4377H172.964C174.901 12.4377 175.707 14.9169 174.139 16.0557L169.714 19.2705C169.013 19.7798 168.72 20.6825 168.988 21.5066L170.678 26.7082C171.277 28.5508 169.168 30.0831 167.6 28.9443L163.176 25.7295C162.475 25.2202 161.525 25.2202 160.824 25.7295L156.4 28.9443C154.832 30.0831 152.723 28.5508 153.322 26.7082L155.012 21.5066C155.28 20.6825 154.987 19.7798 154.286 19.2705L149.861 16.0557C148.293 14.9169 149.099 12.4377 151.036 12.4377H156.506C157.372 12.4377 158.14 11.8798 158.408 11.0557L160.098 5.8541Z" fill="#EAEAEA"/>
</svg>
