<svg width="160" height="160" viewBox="0 0 160 160" fill="none" xmlns="http://www.w3.org/2000/svg">
<path opacity="0.4" d="M135.133 114.6C128.467 120.667 119.867 124 110.867 123.933H110.267C112.267 119.8 113.333 115.133 113.333 110.2C113.333 91.8 98.4 76.8667 80 76.8667C61.6 76.8667 46.6667 91.8 46.6667 110.2C46.6667 115.133 47.7335 119.8 49.7335 123.933H36.9332C5.7332 121.733 5.7332 76.3334 36.9332 74.1334H37.2669C15.8669 14.6 106.133 -9.19997 116.466 53.3334C145.333 57 157 95.4667 135.133 114.6Z" fill="white"/>
<path d="M80.0001 76.8667C61.6001 76.8667 46.6667 91.8 46.6667 110.2C46.6667 115.133 47.7336 119.8 49.7336 123.933C50.2669 125.133 50.8666 126.267 51.5333 127.333C57.2666 137 67.8667 143.533 80.0001 143.533C92.1334 143.533 102.734 137 108.467 127.333C109.134 126.267 109.733 125.133 110.267 123.933C112.267 119.8 113.333 115.133 113.333 110.2C113.333 91.8 98.4001 76.8667 80.0001 76.8667ZM93.8001 107.333L79.6001 120.467C78.6668 121.333 77.4 121.8 76.2 121.8C74.9334 121.8 73.6669 121.333 72.6669 120.333L66.0666 113.733C64.1332 111.8 64.1332 108.6 66.0666 106.667C67.9999 104.733 71.1999 104.733 73.1332 106.667L76.3335 109.867L87 100C89.0667 98.1334 92.2 98.2667 94.0667 100.267C95.9333 102.267 95.8001 105.4 93.8001 107.333Z" fill="white"/>
</svg>
