<svg width="160" height="160" viewBox="0 0 160 160" fill="none" xmlns="http://www.w3.org/2000/svg">
<path opacity="0.4" d="M80.0026 145.999C116.822 145.999 146.669 116.152 146.669 79.3327C146.669 42.5137 116.822 12.666 80.0026 12.666C43.1836 12.666 13.3359 42.5137 13.3359 79.3327C13.3359 116.152 43.1836 145.999 80.0026 145.999Z" fill="white"/>
<path d="M95.0677 80L85.001 76.4667V53.8667H87.401C92.801 53.8667 97.201 58.6 97.201 64.4C97.201 67.1333 99.4677 69.4 102.201 69.4C104.934 69.4 107.201 67.1333 107.201 64.4C107.201 53.0667 98.3344 43.8667 87.401 43.8667H85.001V40C85.001 37.2667 82.7344 35 80.001 35C77.2677 35 75.001 37.2667 75.001 40V43.8667H70.6677C60.801 43.8667 52.7344 52.2 52.7344 62.4C52.7344 74.3333 59.6677 78.1333 64.9344 80L75.001 83.5333V106.067H72.601C67.201 106.067 62.801 101.333 62.801 95.5333C62.801 92.8 60.5344 90.5333 57.801 90.5333C55.0677 90.5333 52.801 92.8 52.801 95.5333C52.801 106.867 61.6677 116.067 72.601 116.067H75.001V120C75.001 122.733 77.2677 125 80.001 125C82.7344 125 85.001 122.733 85.001 120V116.133H89.3344C99.201 116.133 107.268 107.8 107.268 97.6C107.201 85.6 100.268 81.8 95.0677 80ZM68.2677 70.6C64.8677 69.4 62.801 68.2667 62.801 62.4667C62.801 57.7333 66.3344 53.9333 70.7344 53.9333H75.0677V73L68.2677 70.6ZM89.3344 106.133H85.001V87.0667L91.7344 89.4C95.1344 90.6 97.201 91.7333 97.201 97.5333C97.201 102.267 93.6677 106.133 89.3344 106.133Z" fill="white"/>
</svg>
