<svg width="160" height="160" viewBox="0 0 160 160" fill="none" xmlns="http://www.w3.org/2000/svg">
<path opacity="0.4" d="M79.9995 115.667C86.001 115.667 90.8661 110.802 90.8661 104.8C90.8661 98.7988 86.001 93.9336 79.9995 93.9336C73.998 93.9336 69.1328 98.7988 69.1328 104.8C69.1328 110.802 73.998 115.667 79.9995 115.667Z" fill="white"/>
<path d="M110.999 62.9336H48.9987C21.6654 62.9336 13.332 71.2669 13.332 98.6003V111C13.332 138.334 21.6654 146.667 48.9987 146.667H110.999C138.332 146.667 146.665 138.334 146.665 111V98.6003C146.665 71.2669 138.332 62.9336 110.999 62.9336ZM79.9987 124.934C68.8654 124.934 59.8654 115.867 59.8654 104.8C59.8654 93.7336 68.8654 84.6669 79.9987 84.6669C91.132 84.6669 100.132 93.7336 100.132 104.8C100.132 115.867 91.132 124.934 79.9987 124.934Z" fill="white"/>
<path opacity="0.4" d="M47.4661 63.0006V55.2006C47.4661 35.6673 52.9995 22.6673 79.9995 22.6673C106.999 22.6673 112.533 35.6673 112.533 55.2006V63.0006C115.933 63.0673 118.999 63.2006 121.866 63.6006V55.2006C121.866 37.2006 117.533 13.334 79.9995 13.334C42.4661 13.334 38.1328 37.2006 38.1328 55.2006V63.534C40.9328 63.2006 44.0661 63.0006 47.4661 63.0006Z" fill="white"/>
</svg>
